<svg width="71" height="512" viewBox="0 0 71 512" fill="none" xmlns="http://www.w3.org/2000/svg">
<g clip-path="url(#clip0_1518_19440)">
<rect width="61" height="512" transform="translate(10)" fill="#1FBBC0"/>
<path opacity="0.5" d="M-106.953 -9.69141L21.8605 -16.6237L63.236 752.204L-65.5776 759.136L-106.953 -9.69141Z" fill="#159A9E"/>
<path d="M34.4347 49.1587V45.1436L26 53.5659L27.9927 55.5969L34.4347 49.1587ZM53.6546 46.6492C53.0296 43.5125 50.6674 41.1599 50.3962 40.8815L44.5988 35L41.2855 38.3054L41.0496 38.5406V42.5557L44.587 39.0269L47.8847 42.3715L48.3878 42.8812L48.4231 42.9165C48.4231 42.9165 48.6433 43.1321 48.9459 43.4928C49.8742 44.557 50.5333 45.8276 50.8679 47.1982C51.3396 49.5508 51.5754 52.3229 48.9459 55.6871V59.8355C49.1935 59.6199 49.3389 59.4669 49.4057 59.412C51.764 57.1065 53.175 54.7774 53.7292 52.2876C54.1127 50.425 54.0886 48.5017 53.6585 46.6492H53.6546ZM36.0933 59.0435L36.0069 59.0003H35.9637C35.7068 58.8664 35.4621 58.7103 35.2326 58.5337C35.0164 58.3808 34.7531 58.1769 34.4465 57.9142C33.967 57.5221 33.3695 56.9889 32.6424 56.2792L31.0113 54.6167L28.9989 56.6242L30.6222 58.275V58.2985C33.1338 60.7452 34.4229 61.4353 34.8985 61.6352C36.4045 62.3752 38.0364 62.8261 39.7094 62.9644C40.4781 63.0243 41.2509 63.0085 42.0165 62.9174L42.2013 62.8978V60.0198C40.1143 60.3496 37.9763 60.0076 36.0973 59.0435H36.0933Z" fill="white"/>
<path d="M39.6326 39.9609V57.1035H35.8633V43.7251L36.2406 43.3487L36.445 43.1448L37.5848 42.0077L38.3552 41.2392L38.6067 40.9882L39.381 40.2158L39.6326 39.9609Z" fill="white"/>
<path d="M47.5239 43.7891V60.8924L47.4768 60.9277C47.3038 61.0375 47.1191 61.1512 46.9226 61.261C46.8597 61.3002 46.7929 61.3355 46.726 61.3707C46.5531 61.4688 46.3684 61.5668 46.1797 61.6609C45.991 61.755 45.822 61.8334 45.6334 61.9158L45.3228 62.0491L44.8984 62.2138L44.5525 62.3353C44.3167 62.4137 44.073 62.4882 43.8214 62.5549L43.6367 62.6019V43.7891H47.5239Z" fill="white"/>
<path d="M43.6341 48.3125H39.6289V52.1943H43.6341V48.3125Z" fill="white"/>
<path d="M29.84 101.752L50.24 110.056V112.648L29.84 104.32V101.752ZM29.84 116.143L50.24 124.447V127.039L29.84 118.711V116.143ZM31.712 150.54C31.712 149.436 31.968 148.444 32.48 147.564C32.992 146.7 33.712 146.02 34.64 145.524C35.584 145.028 36.688 144.78 37.952 144.78C39.216 144.78 40.312 145.028 41.24 145.524C42.168 146.036 42.888 146.724 43.4 147.588C43.928 148.452 44.192 149.436 44.192 150.54C44.192 152.06 43.808 153.284 43.04 154.212C42.288 155.156 41.248 155.756 39.92 156.012V153.348C40.496 153.188 40.952 152.86 41.288 152.364C41.624 151.884 41.792 151.268 41.792 150.516C41.792 149.972 41.648 149.452 41.36 148.956C41.072 148.476 40.64 148.084 40.064 147.78C39.504 147.492 38.8 147.348 37.952 147.348C37.12 147.348 36.416 147.492 35.84 147.78C35.264 148.084 34.824 148.476 34.52 148.956C34.232 149.452 34.088 149.972 34.088 150.516C34.088 151.284 34.256 151.9 34.592 152.364C34.928 152.828 35.392 153.156 35.984 153.348V156.012C34.672 155.692 33.632 155.068 32.864 154.14C32.096 153.212 31.712 152.012 31.712 150.54ZM32 159.411H34.208V162.315H40.904C41.432 162.315 41.696 162.059 41.696 161.547V159.651H43.904V162.507C43.904 163.163 43.712 163.699 43.328 164.115C42.96 164.531 42.44 164.739 41.768 164.739H41.48V164.859C42.376 165.035 43.048 165.411 43.496 165.987C43.96 166.579 44.192 167.435 44.192 168.555V170.403H41.504V167.811C41.504 166.867 41.176 166.139 40.52 165.627C39.864 165.115 39.08 164.859 38.168 164.859H34.208V168.555H32L32 159.411ZM31.712 179.297C31.712 178.145 31.968 177.129 32.48 176.249C33.008 175.369 33.736 174.681 34.664 174.185C35.592 173.689 36.672 173.441 37.904 173.441C39.152 173.441 40.248 173.681 41.192 174.161C42.136 174.657 42.872 175.345 43.4 176.225C43.928 177.121 44.192 178.153 44.192 179.321C44.192 180.473 43.928 181.465 43.4 182.297C42.888 183.129 42.2 183.769 41.336 184.217C40.472 184.681 39.52 184.913 38.48 184.913C38.32 184.913 38.144 184.913 37.952 184.913C37.776 184.913 37.576 184.905 37.352 184.889V175.937C36.248 176.017 35.408 176.377 34.832 177.017C34.272 177.657 33.992 178.409 33.992 179.273C33.992 180.025 34.144 180.617 34.448 181.049C34.768 181.497 35.2 181.825 35.744 182.033V184.601C34.608 184.313 33.648 183.713 32.864 182.801C32.096 181.889 31.712 180.721 31.712 179.297ZM41.984 179.297C41.984 178.513 41.744 177.817 41.264 177.209C40.8 176.601 40.144 176.209 39.296 176.033V182.369C40.096 182.305 40.744 181.993 41.24 181.433C41.736 180.873 41.984 180.161 41.984 179.297ZM31.712 192.464C31.712 191.52 31.872 190.728 32.192 190.088C32.528 189.448 32.968 188.968 33.512 188.648C34.072 188.328 34.68 188.168 35.336 188.168C36.504 188.168 37.416 188.592 38.072 189.44C38.728 190.304 39.056 191.52 39.056 193.088V196.16H39.32C41.112 196.16 42.008 195.328 42.008 193.664C42.008 192.976 41.856 192.392 41.552 191.912C41.264 191.448 40.792 191.136 40.136 190.976V188.432C41.384 188.56 42.368 189.096 43.088 190.04C43.824 191 44.192 192.208 44.192 193.664C44.192 195.424 43.76 196.704 42.896 197.504C42.032 198.304 40.84 198.704 39.32 198.704H32V196.544L33.752 196.328V196.16C33.192 195.808 32.712 195.368 32.312 194.84C31.912 194.312 31.712 193.52 31.712 192.464ZM33.848 192.944C33.848 193.984 34.16 194.76 34.784 195.272C35.424 195.8 36.232 196.088 37.208 196.136V193.352C37.208 192.44 37.056 191.792 36.752 191.408C36.464 191.04 36.056 190.856 35.528 190.856C35 190.856 34.584 191.04 34.28 191.408C33.992 191.792 33.848 192.304 33.848 192.944ZM32 209.23C32 208.062 32.28 207.134 32.84 206.446C33.416 205.758 34.432 205.414 35.888 205.414H41.744V202.414H43.904V204.19C43.904 205.006 44.304 205.486 45.104 205.63L47.024 205.99V207.958H43.904V212.662H41.744V207.958H35.936C35.312 207.958 34.872 208.094 34.616 208.366C34.376 208.654 34.256 209.142 34.256 209.83V212.614H32V209.23ZM31.712 222.469C31.712 221.317 31.968 220.301 32.48 219.421C33.008 218.541 33.736 217.853 34.664 217.357C35.592 216.861 36.672 216.613 37.904 216.613C39.152 216.613 40.248 216.853 41.192 217.333C42.136 217.829 42.872 218.517 43.4 219.397C43.928 220.293 44.192 221.325 44.192 222.493C44.192 223.645 43.928 224.637 43.4 225.469C42.888 226.301 42.2 226.941 41.336 227.389C40.472 227.853 39.52 228.085 38.48 228.085C38.32 228.085 38.144 228.085 37.952 228.085C37.776 228.085 37.576 228.077 37.352 228.061L37.352 219.109C36.248 219.189 35.408 219.549 34.832 220.189C34.272 220.829 33.992 221.581 33.992 222.445C33.992 223.197 34.144 223.789 34.448 224.221C34.768 224.669 35.2 224.997 35.744 225.205L35.744 227.773C34.608 227.485 33.648 226.885 32.864 225.973C32.096 225.061 31.712 223.893 31.712 222.469ZM41.984 222.469C41.984 221.685 41.744 220.989 41.264 220.381C40.8 219.773 40.144 219.381 39.296 219.205V225.541C40.096 225.477 40.744 225.165 41.24 224.605C41.736 224.045 41.984 223.333 41.984 222.469ZM26.72 245.562H28.952V247.506C28.952 248.066 29.072 248.466 29.312 248.706C29.536 248.962 29.92 249.09 30.464 249.09H41.744V246.066H43.904V249.09H45.56C46.888 249.09 47.84 249.418 48.416 250.074C48.992 250.73 49.28 251.666 49.28 252.882V255.786H47.048V253.194C47.048 252.634 46.936 252.234 46.712 251.994C46.488 251.754 46.096 251.634 45.536 251.634H43.904V255.786H41.744V251.634H30.44C29.112 251.634 28.16 251.306 27.584 250.65C27.008 249.994 26.72 249.05 26.72 247.818V245.562ZM31.712 265.497C31.712 264.361 31.968 263.345 32.48 262.449C32.992 261.553 33.712 260.849 34.64 260.337C35.584 259.825 36.688 259.569 37.952 259.569C39.216 259.569 40.312 259.825 41.24 260.337C42.184 260.849 42.912 261.553 43.424 262.449C43.936 263.345 44.192 264.369 44.192 265.521C44.192 266.673 43.936 267.689 43.424 268.569C42.912 269.465 42.184 270.161 41.24 270.657C40.312 271.169 39.216 271.425 37.952 271.425C36.688 271.425 35.584 271.169 34.64 270.657C33.712 270.145 32.992 269.441 32.48 268.545C31.968 267.665 31.712 266.649 31.712 265.497ZM34.136 265.497C34.136 266.105 34.272 266.665 34.544 267.177C34.816 267.689 35.232 268.097 35.792 268.401C36.368 268.721 37.088 268.881 37.952 268.881C38.832 268.881 39.552 268.721 40.112 268.401C40.672 268.097 41.088 267.689 41.36 267.177C41.632 266.681 41.768 266.129 41.768 265.521C41.768 264.913 41.632 264.353 41.36 263.841C41.088 263.329 40.672 262.913 40.112 262.593C39.552 262.289 38.832 262.137 37.952 262.137C36.64 262.137 35.672 262.465 35.048 263.121C34.44 263.793 34.136 264.585 34.136 265.497ZM32 274.536H34.208V277.44H40.904C41.432 277.44 41.696 277.184 41.696 276.672V274.776H43.904V277.632C43.904 278.288 43.712 278.824 43.328 279.24C42.96 279.656 42.44 279.864 41.768 279.864H41.48V279.984C42.376 280.16 43.048 280.536 43.496 281.112C43.96 281.704 44.192 282.56 44.192 283.68V285.528H41.504V282.936C41.504 281.992 41.176 281.264 40.52 280.752C39.864 280.24 39.08 279.984 38.168 279.984H34.208V283.68H32V274.536ZM31.712 308.765C31.712 307.197 32.08 305.949 32.816 305.021C33.552 304.093 34.528 303.565 35.744 303.437V306.053C35.184 306.149 34.728 306.429 34.376 306.893C34.024 307.373 33.848 308.005 33.848 308.789C33.848 309.541 34 310.117 34.304 310.517C34.624 310.933 34.992 311.141 35.408 311.141C36.016 311.141 36.432 310.893 36.656 310.397C36.88 309.917 37.048 309.205 37.16 308.261C37.256 307.445 37.44 306.701 37.712 306.029C38 305.373 38.384 304.853 38.864 304.469C39.36 304.085 39.976 303.893 40.712 303.893C41.752 303.893 42.592 304.301 43.232 305.117C43.872 305.933 44.192 307.069 44.192 308.525C44.192 309.981 43.864 311.109 43.208 311.909C42.552 312.709 41.656 313.173 40.52 313.301V310.853C41 310.789 41.376 310.541 41.648 310.109C41.936 309.677 42.08 309.141 42.08 308.501C42.08 307.845 41.952 307.325 41.696 306.941C41.456 306.557 41.136 306.365 40.736 306.365C39.872 306.365 39.344 307.293 39.152 309.149C39.056 310.029 38.888 310.813 38.648 311.501C38.424 312.189 38.064 312.733 37.568 313.133C37.088 313.533 36.408 313.733 35.528 313.733C34.808 313.749 34.16 313.541 33.584 313.109C33.008 312.693 32.552 312.109 32.216 311.357C31.88 310.621 31.712 309.757 31.712 308.765ZM31.712 323.059C31.712 321.923 31.968 320.907 32.48 320.011C32.992 319.115 33.712 318.411 34.64 317.899C35.584 317.387 36.688 317.131 37.952 317.131C39.216 317.131 40.312 317.387 41.24 317.899C42.184 318.411 42.912 319.115 43.424 320.011C43.936 320.907 44.192 321.931 44.192 323.083C44.192 324.235 43.936 325.251 43.424 326.131C42.912 327.027 42.184 327.723 41.24 328.219C40.312 328.731 39.216 328.987 37.952 328.987C36.688 328.987 35.584 328.731 34.64 328.219C33.712 327.707 32.992 327.003 32.48 326.107C31.968 325.227 31.712 324.211 31.712 323.059ZM34.136 323.059C34.136 323.667 34.272 324.227 34.544 324.739C34.816 325.251 35.232 325.659 35.792 325.963C36.368 326.283 37.088 326.443 37.952 326.443C38.832 326.443 39.552 326.283 40.112 325.963C40.672 325.659 41.088 325.251 41.36 324.739C41.632 324.243 41.768 323.691 41.768 323.083C41.768 322.475 41.632 321.915 41.36 321.403C41.088 320.891 40.672 320.475 40.112 320.155C39.552 319.851 38.832 319.699 37.952 319.699C36.64 319.699 35.672 320.027 35.048 320.683C34.44 321.355 34.136 322.147 34.136 323.059ZM31.712 337.618C31.712 336.514 31.968 335.522 32.48 334.642C32.992 333.778 33.712 333.098 34.64 332.602C35.584 332.106 36.688 331.858 37.952 331.858C39.216 331.858 40.312 332.106 41.24 332.602C42.168 333.114 42.888 333.802 43.4 334.666C43.928 335.53 44.192 336.514 44.192 337.618C44.192 339.138 43.808 340.362 43.04 341.29C42.288 342.234 41.248 342.834 39.92 343.09V340.426C40.496 340.266 40.952 339.938 41.288 339.442C41.624 338.962 41.792 338.346 41.792 337.594C41.792 337.05 41.648 336.53 41.36 336.034C41.072 335.554 40.64 335.162 40.064 334.858C39.504 334.57 38.8 334.426 37.952 334.426C37.12 334.426 36.416 334.57 35.84 334.858C35.264 335.162 34.824 335.554 34.52 336.034C34.232 336.53 34.088 337.05 34.088 337.594C34.088 338.362 34.256 338.978 34.592 339.442C34.928 339.906 35.392 340.234 35.984 340.426V343.09C34.672 342.77 33.632 342.146 32.864 341.218C32.096 340.29 31.712 339.09 31.712 337.618ZM45.728 351.601C45.728 351.041 45.904 350.569 46.256 350.185C46.624 349.817 47.072 349.633 47.6 349.633C48.128 349.633 48.568 349.817 48.92 350.185C49.272 350.569 49.448 351.041 49.448 351.601C49.448 352.177 49.272 352.649 48.92 353.017C48.568 353.401 48.128 353.593 47.6 353.593C47.072 353.593 46.624 353.401 46.256 353.017C45.904 352.649 45.728 352.177 45.728 351.601ZM32 346.825H34.208V350.569H40.904C41.432 350.569 41.696 350.313 41.696 349.801V347.161H43.904V350.257C43.904 351.249 43.672 351.969 43.208 352.417C42.76 352.881 42.04 353.113 41.048 353.113H34.208V356.857H32V346.825ZM31.712 365.151C31.712 364.207 31.872 363.415 32.192 362.775C32.528 362.135 32.968 361.655 33.512 361.335C34.072 361.015 34.68 360.855 35.336 360.855C36.504 360.855 37.416 361.279 38.072 362.127C38.728 362.991 39.056 364.207 39.056 365.775V368.847H39.32C41.112 368.847 42.008 368.015 42.008 366.351C42.008 365.663 41.856 365.079 41.552 364.599C41.264 364.135 40.792 363.823 40.136 363.663V361.119C41.384 361.247 42.368 361.783 43.088 362.727C43.824 363.687 44.192 364.895 44.192 366.351C44.192 368.111 43.76 369.391 42.896 370.191C42.032 370.991 40.84 371.391 39.32 371.391H32V369.231L33.752 369.015V368.847C33.192 368.495 32.712 368.055 32.312 367.527C31.912 366.999 31.712 366.207 31.712 365.151ZM33.848 365.631C33.848 366.671 34.16 367.447 34.784 367.959C35.424 368.487 36.232 368.775 37.208 368.823V366.039C37.208 365.127 37.056 364.479 36.752 364.095C36.464 363.727 36.056 363.543 35.528 363.543C35 363.543 34.584 363.727 34.28 364.095C33.992 364.479 33.848 364.991 33.848 365.631ZM32 375.054H34.208V379.038H46.28C46.808 379.038 47.072 378.782 47.072 378.27V375.39H49.28V378.726C49.28 379.654 49.032 380.358 48.536 380.838C48.056 381.334 47.352 381.582 46.424 381.582H34.208V385.59H32L32 375.054ZM35.432 409.139C35.432 408.403 35.552 407.723 35.792 407.099L35.072 406.499C34.832 406.307 34.6 406.251 34.376 406.331C34.168 406.427 34.064 406.643 34.064 406.979V410.123C34.064 411.515 33.768 412.635 33.176 413.483C32.6 414.347 31.712 414.779 30.512 414.779C29.76 414.779 29.08 414.587 28.472 414.203C27.848 413.835 27.352 413.235 26.984 412.403C26.616 411.587 26.432 410.507 26.432 409.163C26.432 407.467 26.752 406.099 27.392 405.059C28.016 404.035 28.96 403.523 30.224 403.523C30.672 403.523 31.088 403.627 31.472 403.835C31.84 404.059 32.176 404.347 32.48 404.699C32.8 404.267 33.248 404.003 33.824 403.907C34.416 403.827 34.984 404.003 35.528 404.435L36.872 405.491C37.672 404.739 38.656 404.363 39.824 404.363C40.608 404.363 41.328 404.547 41.984 404.915C42.656 405.299 43.192 405.843 43.592 406.547C43.992 407.267 44.192 408.131 44.192 409.139C44.192 409.795 44.096 410.403 43.904 410.963V415.451H42.224L42.104 413.363H41.888C41.264 413.699 40.576 413.867 39.824 413.867C39.04 413.867 38.312 413.675 37.64 413.291C36.968 412.923 36.432 412.387 36.032 411.683C35.632 410.979 35.432 410.131 35.432 409.139ZM37.472 409.139C37.472 409.843 37.68 410.419 38.096 410.867C38.512 411.331 39.088 411.563 39.824 411.563C40.528 411.563 41.088 411.331 41.504 410.867C41.92 410.419 42.128 409.843 42.128 409.139C42.128 408.419 41.92 407.827 41.504 407.363C41.088 406.915 40.528 406.691 39.824 406.691C39.088 406.691 38.512 406.915 38.096 407.363C37.68 407.827 37.472 408.419 37.472 409.139ZM30.416 405.923C29.776 405.923 29.304 406.227 29 406.835C28.696 407.459 28.544 408.235 28.544 409.163C28.544 410.155 28.712 410.939 29.048 411.515C29.384 412.091 29.856 412.379 30.464 412.379C30.976 412.379 31.384 412.171 31.688 411.755C31.976 411.339 32.12 410.635 32.12 409.643V406.835C31.64 406.227 31.072 405.923 30.416 405.923ZM31.712 423.794C31.712 422.658 31.968 421.642 32.48 420.746C32.992 419.85 33.712 419.146 34.64 418.634C35.584 418.122 36.688 417.866 37.952 417.866C39.216 417.866 40.312 418.122 41.24 418.634C42.184 419.146 42.912 419.85 43.424 420.746C43.936 421.642 44.192 422.666 44.192 423.818C44.192 424.97 43.936 425.986 43.424 426.866C42.912 427.762 42.184 428.458 41.24 428.954C40.312 429.466 39.216 429.722 37.952 429.722C36.688 429.722 35.584 429.466 34.64 428.954C33.712 428.442 32.992 427.738 32.48 426.842C31.968 425.962 31.712 424.946 31.712 423.794ZM34.136 423.794C34.136 424.402 34.272 424.962 34.544 425.474C34.816 425.986 35.232 426.394 35.792 426.698C36.368 427.018 37.088 427.178 37.952 427.178C38.832 427.178 39.552 427.018 40.112 426.698C40.672 426.394 41.088 425.986 41.36 425.474C41.632 424.978 41.768 424.426 41.768 423.818C41.768 423.21 41.632 422.65 41.36 422.138C41.088 421.626 40.672 421.21 40.112 420.89C39.552 420.586 38.832 420.434 37.952 420.434C36.64 420.434 35.672 420.762 35.048 421.418C34.44 422.09 34.136 422.882 34.136 423.794ZM31.712 438.184C31.712 437.048 31.968 436.032 32.48 435.136C32.992 434.24 33.712 433.536 34.64 433.024C35.584 432.512 36.688 432.256 37.952 432.256C39.216 432.256 40.312 432.512 41.24 433.024C42.184 433.536 42.912 434.24 43.424 435.136C43.936 436.032 44.192 437.056 44.192 438.208C44.192 439.36 43.936 440.376 43.424 441.256C42.912 442.152 42.184 442.848 41.24 443.344C40.312 443.856 39.216 444.112 37.952 444.112C36.688 444.112 35.584 443.856 34.64 443.344C33.712 442.832 32.992 442.128 32.48 441.232C31.968 440.352 31.712 439.336 31.712 438.184ZM34.136 438.184C34.136 438.792 34.272 439.352 34.544 439.864C34.816 440.376 35.232 440.784 35.792 441.088C36.368 441.408 37.088 441.568 37.952 441.568C38.832 441.568 39.552 441.408 40.112 441.088C40.672 440.784 41.088 440.376 41.36 439.864C41.632 439.368 41.768 438.816 41.768 438.208C41.768 437.6 41.632 437.04 41.36 436.528C41.088 436.016 40.672 435.6 40.112 435.28C39.552 434.976 38.832 434.824 37.952 434.824C36.64 434.824 35.672 435.152 35.048 435.808C34.44 436.48 34.136 437.272 34.136 438.184ZM31.712 451.927C31.712 450.935 31.944 450.047 32.408 449.263C32.888 448.479 33.592 447.855 34.52 447.391C35.448 446.943 36.592 446.719 37.952 446.719C39.312 446.719 40.456 446.951 41.384 447.415C42.312 447.879 43.008 448.503 43.472 449.287C43.952 450.087 44.192 450.975 44.192 451.951C44.192 452.863 44.016 453.615 43.664 454.207C43.328 454.799 42.896 455.239 42.368 455.527H49.28V458.071H32L32 455.887L33.752 455.671V455.527C33.128 455.207 32.632 454.751 32.264 454.159C31.896 453.583 31.712 452.839 31.712 451.927ZM34.136 452.455C34.136 453.367 34.456 454.119 35.096 454.711C35.736 455.319 36.688 455.623 37.952 455.623C39.232 455.623 40.184 455.319 40.808 454.711C41.448 454.119 41.768 453.367 41.768 452.455C41.768 451.543 41.448 450.783 40.808 450.175C40.168 449.583 39.208 449.287 37.928 449.287C36.664 449.287 35.712 449.583 35.072 450.175C34.448 450.783 34.136 451.543 34.136 452.455ZM29.72 461.398H32V472.534H29.72V461.398Z" fill="white"/>
</g>
<rect y="18" width="10" height="5" fill="#EDEDED"/>
<rect y="489" width="10" height="5" fill="#EDEDED"/>
<defs>
<clipPath id="clip0_1518_19440">
<rect width="61" height="512" fill="white" transform="translate(10)"/>
</clipPath>
</defs>
</svg>
