<svg width="112" height="661" viewBox="0 0 112 661" fill="none" xmlns="http://www.w3.org/2000/svg">
<g clip-path="url(#clip0_438_2466)">
<rect width="97" height="661" transform="translate(15)" fill="#1FBBC0"/>
<path opacity="0.5" d="M-105.957 -6.29004L22.5129 -17.9728L92.2418 748.803L-36.2281 760.486L-105.957 -6.29004Z" fill="#159A9E"/>
<path d="M55.2545 69.2493V62.9399L42 76.1749L45.1314 79.3666L55.2545 69.2493ZM85.4572 65.306C84.4751 60.3767 80.7631 56.6798 80.3369 56.2423L71.2267 47L66.0201 52.1942L65.6494 52.5639V58.8733L71.2082 53.3279L76.3902 58.5837L77.1808 59.3847L77.2364 59.4402C77.2364 59.4402 77.5823 59.779 78.0579 60.3459C79.5166 62.0181 80.5523 64.0148 81.0781 66.1686C81.8193 69.8655 82.1899 74.2217 78.0579 79.5083V86.0272C78.447 85.6883 78.6755 85.448 78.7805 85.3618C82.4863 81.7388 84.7036 78.0788 85.5745 74.1663C86.1771 71.2393 86.1392 68.217 85.4634 65.306H85.4572ZM57.861 84.7826L57.7251 84.7148H57.6572C57.2535 84.5044 56.8691 84.2591 56.5084 83.9816C56.1687 83.7413 55.7549 83.4209 55.2731 83.0081C54.5196 82.3919 53.5807 81.5539 52.4381 80.4387L49.8749 77.8262L46.7126 80.9809L49.2635 83.5749V83.6119C53.2102 87.4567 55.236 88.5411 55.9834 88.8554C58.3499 90.0182 60.9144 90.7267 63.5433 90.9441C64.7513 91.0382 65.9657 91.0134 67.1689 90.8702L67.4591 90.8394V86.3168C64.1796 86.835 60.8199 86.2976 57.8672 84.7826H57.861Z" fill="white"/>
<path d="M63.4197 54.7944V81.7327H57.4966V60.7095L58.0895 60.118L58.4107 59.7976L60.2019 58.0108L61.4124 56.8031L61.8077 56.4088L63.0244 55.1949L63.4197 54.7944Z" fill="white"/>
<path d="M75.8219 60.814V87.6906L75.7477 87.7461C75.476 87.9186 75.1857 88.0973 74.8768 88.2698C74.778 88.3314 74.673 88.3869 74.568 88.4423C74.2963 88.5964 74.006 88.7504 73.7095 88.8983C73.413 89.0461 73.1474 89.1694 72.851 89.2988L72.363 89.5083L71.696 89.767L71.1525 89.9581C70.7819 90.0813 70.3989 90.1984 70.0037 90.3031L69.7134 90.3771V60.814H75.8219Z" fill="white"/>
<path d="M69.7137 67.9182H63.4199V74.0181H69.7137V67.9182Z" fill="white"/>
<path d="M50.12 124.336L77.32 135.408V138.864L50.12 127.76V124.336ZM50.12 143.524L77.32 154.596V158.052L50.12 146.948V143.524ZM52.616 189.387C52.616 187.915 52.9573 186.592 53.64 185.419C54.3227 184.267 55.2827 183.36 56.52 182.699C57.7787 182.037 59.2507 181.707 60.936 181.707C62.6213 181.707 64.0827 182.037 65.32 182.699C66.5573 183.381 67.5173 184.299 68.2 185.451C68.904 186.603 69.256 187.915 69.256 189.387C69.256 191.413 68.744 193.045 67.72 194.283C66.7173 195.541 65.3307 196.341 63.56 196.683V193.131C64.328 192.917 64.936 192.48 65.384 191.819C65.832 191.179 66.056 190.357 66.056 189.355C66.056 188.629 65.864 187.936 65.48 187.275C65.096 186.635 64.52 186.112 63.752 185.707C63.0053 185.323 62.0667 185.131 60.936 185.131C59.8267 185.131 58.888 185.323 58.12 185.707C57.352 186.112 56.7653 186.635 56.36 187.275C55.976 187.936 55.784 188.629 55.784 189.355C55.784 190.379 56.008 191.2 56.456 191.819C56.904 192.437 57.5227 192.875 58.312 193.131V196.683C56.5627 196.256 55.176 195.424 54.152 194.187C53.128 192.949 52.616 191.349 52.616 189.387ZM53 201.214H55.944V205.086H64.872C65.576 205.086 65.928 204.745 65.928 204.062V201.534H68.872V205.342C68.872 206.217 68.616 206.931 68.104 207.486C67.6133 208.041 66.92 208.318 66.024 208.318H65.64V208.478C66.8347 208.713 67.7307 209.214 68.328 209.982C68.9467 210.771 69.256 211.913 69.256 213.406V215.87H65.672V212.414C65.672 211.155 65.2347 210.185 64.36 209.502C63.4853 208.819 62.44 208.478 61.224 208.478H55.944V213.406H53V201.214ZM52.616 227.73C52.616 226.194 52.9573 224.839 53.64 223.666C54.344 222.492 55.3147 221.575 56.552 220.914C57.7893 220.252 59.2293 219.922 60.872 219.922C62.536 219.922 63.9973 220.242 65.256 220.882C66.5147 221.543 67.496 222.46 68.2 223.634C68.904 224.828 69.256 226.204 69.256 227.762C69.256 229.298 68.904 230.62 68.2 231.73C67.5173 232.839 66.6 233.692 65.448 234.29C64.296 234.908 63.0267 235.218 61.64 235.218C61.4267 235.218 61.192 235.218 60.936 235.218C60.7013 235.218 60.4347 235.207 60.136 235.186L60.136 223.25C58.664 223.356 57.544 223.836 56.776 224.69C56.0293 225.543 55.656 226.546 55.656 227.698C55.656 228.7 55.8587 229.49 56.264 230.066C56.6907 230.663 57.2667 231.1 57.992 231.378V234.802C56.4773 234.418 55.1973 233.618 54.152 232.402C53.128 231.186 52.616 229.628 52.616 227.73ZM66.312 227.73C66.312 226.684 65.992 225.756 65.352 224.946C64.7333 224.135 63.8587 223.612 62.728 223.378L62.728 231.826C63.7947 231.74 64.6587 231.324 65.32 230.578C65.9813 229.831 66.312 228.882 66.312 227.73ZM52.616 245.285C52.616 244.026 52.8293 242.97 53.256 242.117C53.704 241.264 54.2907 240.624 55.016 240.197C55.7627 239.77 56.5733 239.557 57.448 239.557C59.0053 239.557 60.2213 240.122 61.096 241.253C61.9707 242.405 62.408 244.026 62.408 246.117L62.408 250.213H62.76C65.1493 250.213 66.344 249.104 66.344 246.885C66.344 245.968 66.1413 245.189 65.736 244.549C65.352 243.93 64.7227 243.514 63.848 243.301V239.909C65.512 240.08 66.824 240.794 67.784 242.053C68.7653 243.333 69.256 244.944 69.256 246.885C69.256 249.232 68.68 250.938 67.528 252.005C66.376 253.072 64.7867 253.605 62.76 253.605H53V250.725L55.336 250.437V250.213C54.5893 249.744 53.9493 249.157 53.416 248.453C52.8827 247.749 52.616 246.693 52.616 245.285ZM55.464 245.925C55.464 247.312 55.88 248.346 56.712 249.029C57.5653 249.733 58.6427 250.117 59.944 250.181L59.944 246.469C59.944 245.253 59.7413 244.389 59.336 243.877C58.952 243.386 58.408 243.141 57.704 243.141C57 243.141 56.4453 243.386 56.04 243.877C55.656 244.389 55.464 245.072 55.464 245.925ZM53 267.641C53 266.083 53.3733 264.846 54.12 263.929C54.888 263.011 56.2427 262.553 58.184 262.553H65.992V258.553H68.872V260.921C68.872 262.009 69.4053 262.649 70.472 262.841L73.032 263.321V265.945H68.872V272.217H65.992V265.945H58.248C57.416 265.945 56.8293 266.126 56.488 266.489C56.168 266.873 56.008 267.523 56.008 268.441V272.153H53V267.641ZM52.616 285.292C52.616 283.756 52.9573 282.401 53.64 281.228C54.344 280.055 55.3147 279.137 56.552 278.476C57.7893 277.815 59.2293 277.484 60.872 277.484C62.536 277.484 63.9973 277.804 65.256 278.444C66.5147 279.105 67.496 280.023 68.2 281.196C68.904 282.391 69.256 283.767 69.256 285.324C69.256 286.86 68.904 288.183 68.2 289.292C67.5173 290.401 66.6 291.255 65.448 291.852C64.296 292.471 63.0267 292.78 61.64 292.78C61.4267 292.78 61.192 292.78 60.936 292.78C60.7013 292.78 60.4347 292.769 60.136 292.748V280.812C58.664 280.919 57.544 281.399 56.776 282.252C56.0293 283.105 55.656 284.108 55.656 285.26C55.656 286.263 55.8587 287.052 56.264 287.628C56.6907 288.225 57.2667 288.663 57.992 288.94V292.364C56.4773 291.98 55.1973 291.18 54.152 289.964C53.128 288.748 52.616 287.191 52.616 285.292ZM66.312 285.292C66.312 284.247 65.992 283.319 65.352 282.508C64.7333 281.697 63.8587 281.175 62.728 280.94V289.388C63.7947 289.303 64.6587 288.887 65.32 288.14C65.9813 287.393 66.312 286.444 66.312 285.292ZM45.96 316.083H48.936V318.675C48.936 319.422 49.096 319.955 49.416 320.275C49.7147 320.616 50.2267 320.787 50.952 320.787H65.992V316.755H68.872V320.787H71.08C72.8507 320.787 74.12 321.224 74.888 322.099C75.656 322.974 76.04 324.222 76.04 325.843V329.715H73.064V326.259C73.064 325.512 72.9147 324.979 72.616 324.659C72.3173 324.339 71.7947 324.179 71.048 324.179H68.872L68.872 329.715H65.992L65.992 324.179H50.92C49.1493 324.179 47.88 323.742 47.112 322.867C46.344 321.992 45.96 320.734 45.96 319.091V316.083ZM52.616 342.663C52.616 341.148 52.9573 339.793 53.64 338.599C54.3227 337.404 55.2827 336.465 56.52 335.783C57.7787 335.1 59.2507 334.759 60.936 334.759C62.6213 334.759 64.0827 335.1 65.32 335.783C66.5787 336.465 67.5493 337.404 68.232 338.599C68.9147 339.793 69.256 341.159 69.256 342.695C69.256 344.231 68.9147 345.585 68.232 346.759C67.5493 347.953 66.5787 348.881 65.32 349.543C64.0827 350.225 62.6213 350.567 60.936 350.567C59.2507 350.567 57.7787 350.225 56.52 349.543C55.2827 348.86 54.3227 347.921 53.64 346.727C52.9573 345.553 52.616 344.199 52.616 342.663ZM55.848 342.663C55.848 343.473 56.0293 344.22 56.392 344.903C56.7547 345.585 57.3093 346.129 58.056 346.535C58.824 346.961 59.784 347.175 60.936 347.175C62.1093 347.175 63.0693 346.961 63.816 346.535C64.5627 346.129 65.1173 345.585 65.48 344.903C65.8427 344.241 66.024 343.505 66.024 342.695C66.024 341.884 65.8427 341.137 65.48 340.455C65.1173 339.772 64.5627 339.217 63.816 338.791C63.0693 338.385 62.1093 338.183 60.936 338.183C59.1867 338.183 57.896 338.62 57.064 339.495C56.2533 340.391 55.848 341.447 55.848 342.663ZM53 354.714H55.944V358.586H64.872C65.576 358.586 65.928 358.245 65.928 357.562V355.034H68.872V358.842C68.872 359.717 68.616 360.431 68.104 360.986C67.6133 361.541 66.92 361.818 66.024 361.818H65.64V361.978C66.8347 362.213 67.7307 362.714 68.328 363.482C68.9467 364.271 69.256 365.413 69.256 366.906V369.37H65.672V365.914C65.672 364.655 65.2347 363.685 64.36 363.002C63.4853 362.319 62.44 361.978 61.224 361.978H55.944V366.906H53V354.714ZM52.616 400.353C52.616 398.262 53.1067 396.598 54.088 395.361C55.0693 394.124 56.3707 393.42 57.992 393.249V396.737C57.2453 396.865 56.6373 397.238 56.168 397.857C55.6987 398.497 55.464 399.34 55.464 400.385C55.464 401.388 55.6667 402.156 56.072 402.689C56.4987 403.244 56.9893 403.521 57.544 403.521C58.3547 403.521 58.9093 403.19 59.208 402.529C59.5067 401.889 59.7307 400.94 59.88 399.681C60.008 398.593 60.2533 397.601 60.616 396.705C61 395.83 61.512 395.137 62.152 394.625C62.8133 394.113 63.6347 393.857 64.616 393.857C66.0027 393.857 67.1227 394.401 67.976 395.489C68.8293 396.577 69.256 398.092 69.256 400.033C69.256 401.974 68.8187 403.478 67.944 404.545C67.0693 405.612 65.8747 406.23 64.36 406.401V403.137C65 403.052 65.5013 402.721 65.864 402.145C66.248 401.569 66.44 400.854 66.44 400.001C66.44 399.126 66.2693 398.433 65.928 397.921C65.608 397.409 65.1813 397.153 64.648 397.153C63.496 397.153 62.792 398.39 62.536 400.865C62.408 402.038 62.184 403.084 61.864 404.001C61.5653 404.918 61.0853 405.644 60.424 406.177C59.784 406.71 58.8773 406.977 57.704 406.977C56.744 406.998 55.88 406.721 55.112 406.145C54.344 405.59 53.736 404.812 53.288 403.809C52.84 402.828 52.616 401.676 52.616 400.353ZM52.616 419.413C52.616 417.898 52.9573 416.543 53.64 415.349C54.3227 414.154 55.2827 413.215 56.52 412.533C57.7787 411.85 59.2507 411.509 60.936 411.509C62.6213 411.509 64.0827 411.85 65.32 412.533C66.5787 413.215 67.5493 414.154 68.232 415.349C68.9147 416.543 69.256 417.909 69.256 419.445C69.256 420.981 68.9147 422.335 68.232 423.509C67.5493 424.703 66.5787 425.631 65.32 426.293C64.0827 426.975 62.6213 427.317 60.936 427.317C59.2507 427.317 57.7787 426.975 56.52 426.293C55.2827 425.61 54.3227 424.671 53.64 423.477C52.9573 422.303 52.616 420.949 52.616 419.413ZM55.848 419.413C55.848 420.223 56.0293 420.97 56.392 421.653C56.7547 422.335 57.3093 422.879 58.056 423.285C58.824 423.711 59.784 423.925 60.936 423.925C62.1093 423.925 63.0693 423.711 63.816 423.285C64.5627 422.879 65.1173 422.335 65.48 421.653C65.8427 420.991 66.024 420.255 66.024 419.445C66.024 418.634 65.8427 417.887 65.48 417.205C65.1173 416.522 64.5627 415.967 63.816 415.541C63.0693 415.135 62.1093 414.933 60.936 414.933C59.1867 414.933 57.896 415.37 57.064 416.245C56.2533 417.141 55.848 418.197 55.848 419.413ZM52.616 438.824C52.616 437.352 52.9573 436.029 53.64 434.856C54.3227 433.704 55.2827 432.797 56.52 432.136C57.7787 431.475 59.2507 431.144 60.936 431.144C62.6213 431.144 64.0827 431.475 65.32 432.136C66.5573 432.819 67.5173 433.736 68.2 434.888C68.904 436.04 69.256 437.352 69.256 438.824C69.256 440.851 68.744 442.483 67.72 443.72C66.7173 444.979 65.3307 445.779 63.56 446.12V442.568C64.328 442.355 64.936 441.917 65.384 441.256C65.832 440.616 66.056 439.795 66.056 438.792C66.056 438.067 65.864 437.373 65.48 436.712C65.096 436.072 64.52 435.549 63.752 435.144C63.0053 434.76 62.0667 434.568 60.936 434.568C59.8267 434.568 58.888 434.76 58.12 435.144C57.352 435.549 56.7653 436.072 56.36 436.712C55.976 437.373 55.784 438.067 55.784 438.792C55.784 439.816 56.008 440.637 56.456 441.256C56.904 441.875 57.5227 442.312 58.312 442.568V446.12C56.5627 445.693 55.176 444.861 54.152 443.624C53.128 442.387 52.616 440.787 52.616 438.824ZM71.304 457.468C71.304 456.721 71.5387 456.092 72.008 455.58C72.4987 455.089 73.096 454.844 73.8 454.844C74.504 454.844 75.0907 455.089 75.56 455.58C76.0293 456.092 76.264 456.721 76.264 457.468C76.264 458.236 76.0293 458.865 75.56 459.356C75.0907 459.868 74.504 460.124 73.8 460.124C73.096 460.124 72.4987 459.868 72.008 459.356C71.5387 458.865 71.304 458.236 71.304 457.468ZM53 451.1H55.944V456.092H64.872C65.576 456.092 65.928 455.75 65.928 455.068V451.548H68.872V455.676C68.872 456.998 68.5627 457.958 67.944 458.556C67.3467 459.174 66.3867 459.484 65.064 459.484H55.944L55.944 464.476H53V451.1ZM52.616 475.535C52.616 474.276 52.8293 473.22 53.256 472.367C53.704 471.514 54.2907 470.874 55.016 470.447C55.7627 470.02 56.5733 469.807 57.448 469.807C59.0053 469.807 60.2213 470.372 61.096 471.503C61.9707 472.655 62.408 474.276 62.408 476.367L62.408 480.463H62.76C65.1493 480.463 66.344 479.354 66.344 477.135C66.344 476.218 66.1413 475.439 65.736 474.799C65.352 474.18 64.7227 473.764 63.848 473.551V470.159C65.512 470.33 66.824 471.044 67.784 472.303C68.7653 473.583 69.256 475.194 69.256 477.135C69.256 479.482 68.68 481.188 67.528 482.255C66.376 483.322 64.7867 483.855 62.76 483.855H53V480.975L55.336 480.687V480.463C54.5893 479.994 53.9493 479.407 53.416 478.703C52.8827 477.999 52.616 476.943 52.616 475.535ZM55.464 476.175C55.464 477.562 55.88 478.596 56.712 479.279C57.5653 479.983 58.6427 480.367 59.944 480.431L59.944 476.719C59.944 475.503 59.7413 474.639 59.336 474.127C58.952 473.636 58.408 473.391 57.704 473.391C57 473.391 56.4453 473.636 56.04 474.127C55.656 474.639 55.464 475.322 55.464 476.175ZM53 488.739H55.944V494.051H72.04C72.744 494.051 73.096 493.709 73.096 493.027V489.187H76.04V493.635C76.04 494.872 75.7093 495.811 75.048 496.451C74.408 497.112 73.4693 497.443 72.232 497.443H55.944V502.787H53L53 488.739ZM57.576 534.186C57.576 533.204 57.736 532.298 58.056 531.466L57.096 530.666C56.776 530.41 56.4667 530.335 56.168 530.442C55.8907 530.57 55.752 530.858 55.752 531.306V535.498C55.752 537.354 55.3573 538.847 54.568 539.978C53.8 541.13 52.616 541.706 51.016 541.706C50.0133 541.706 49.1067 541.45 48.296 540.938C47.464 540.447 46.8027 539.647 46.312 538.538C45.8213 537.45 45.576 536.01 45.576 534.218C45.576 531.956 46.0027 530.132 46.856 528.746C47.688 527.38 48.9467 526.698 50.632 526.698C51.2293 526.698 51.784 526.836 52.296 527.114C52.7867 527.412 53.2347 527.796 53.64 528.266C54.0667 527.69 54.664 527.338 55.432 527.21C56.2213 527.103 56.9787 527.338 57.704 527.914L59.496 529.322C60.5627 528.319 61.8747 527.818 63.432 527.818C64.4773 527.818 65.4373 528.063 66.312 528.554C67.208 529.066 67.9227 529.791 68.456 530.73C68.9893 531.69 69.256 532.842 69.256 534.186C69.256 535.06 69.128 535.871 68.872 536.618L68.872 542.602H66.632L66.472 539.818H66.184C65.352 540.266 64.4347 540.49 63.432 540.49C62.3867 540.49 61.416 540.234 60.52 539.722C59.624 539.231 58.9093 538.516 58.376 537.578C57.8427 536.639 57.576 535.508 57.576 534.186ZM60.296 534.186C60.296 535.124 60.5733 535.892 61.128 536.49C61.6827 537.108 62.4507 537.418 63.432 537.418C64.3707 537.418 65.1173 537.108 65.672 536.49C66.2267 535.892 66.504 535.124 66.504 534.186C66.504 533.226 66.2267 532.436 65.672 531.818C65.1173 531.22 64.3707 530.922 63.432 530.922C62.4507 530.922 61.6827 531.22 61.128 531.818C60.5733 532.436 60.296 533.226 60.296 534.186ZM50.888 529.898C50.0347 529.898 49.4053 530.303 49 531.114C48.5947 531.946 48.392 532.98 48.392 534.218C48.392 535.54 48.616 536.586 49.064 537.354C49.512 538.122 50.1413 538.506 50.952 538.506C51.6347 538.506 52.1787 538.228 52.584 537.674C52.968 537.119 53.16 536.18 53.16 534.858V531.114C52.52 530.303 51.7627 529.898 50.888 529.898ZM52.616 553.725C52.616 552.21 52.9573 550.856 53.64 549.661C54.3227 548.466 55.2827 547.528 56.52 546.845C57.7787 546.162 59.2507 545.821 60.936 545.821C62.6213 545.821 64.0827 546.162 65.32 546.845C66.5787 547.528 67.5493 548.466 68.232 549.661C68.9147 550.856 69.256 552.221 69.256 553.757C69.256 555.293 68.9147 556.648 68.232 557.821C67.5493 559.016 66.5787 559.944 65.32 560.605C64.0827 561.288 62.6213 561.629 60.936 561.629C59.2507 561.629 57.7787 561.288 56.52 560.605C55.2827 559.922 54.3227 558.984 53.64 557.789C52.9573 556.616 52.616 555.261 52.616 553.725ZM55.848 553.725C55.848 554.536 56.0293 555.282 56.392 555.965C56.7547 556.648 57.3093 557.192 58.056 557.597C58.824 558.024 59.784 558.237 60.936 558.237C62.1093 558.237 63.0693 558.024 63.816 557.597C64.5627 557.192 65.1173 556.648 65.48 555.965C65.8427 555.304 66.024 554.568 66.024 553.757C66.024 552.946 65.8427 552.2 65.48 551.517C65.1173 550.834 64.5627 550.28 63.816 549.853C63.0693 549.448 62.1093 549.245 60.936 549.245C59.1867 549.245 57.896 549.682 57.064 550.557C56.2533 551.453 55.848 552.509 55.848 553.725ZM52.616 572.913C52.616 571.398 52.9573 570.043 53.64 568.849C54.3227 567.654 55.2827 566.715 56.52 566.033C57.7787 565.35 59.2507 565.009 60.936 565.009C62.6213 565.009 64.0827 565.35 65.32 566.033C66.5787 566.715 67.5493 567.654 68.232 568.849C68.9147 570.043 69.256 571.409 69.256 572.945C69.256 574.481 68.9147 575.835 68.232 577.009C67.5493 578.203 66.5787 579.131 65.32 579.793C64.0827 580.475 62.6213 580.817 60.936 580.817C59.2507 580.817 57.7787 580.475 56.52 579.793C55.2827 579.11 54.3227 578.171 53.64 576.977C52.9573 575.803 52.616 574.449 52.616 572.913ZM55.848 572.913C55.848 573.723 56.0293 574.47 56.392 575.153C56.7547 575.835 57.3093 576.379 58.056 576.785C58.824 577.211 59.784 577.425 60.936 577.425C62.1093 577.425 63.0693 577.211 63.816 576.785C64.5627 576.379 65.1173 575.835 65.48 575.153C65.8427 574.491 66.024 573.755 66.024 572.945C66.024 572.134 65.8427 571.387 65.48 570.705C65.1173 570.022 64.5627 569.467 63.816 569.041C63.0693 568.635 62.1093 568.433 60.936 568.433C59.1867 568.433 57.896 568.87 57.064 569.745C56.2533 570.641 55.848 571.697 55.848 572.913ZM52.616 591.236C52.616 589.913 52.9253 588.729 53.544 587.684C54.184 586.639 55.1227 585.807 56.36 585.188C57.5973 584.591 59.1227 584.292 60.936 584.292C62.7493 584.292 64.2747 584.601 65.512 585.22C66.7493 585.839 67.6773 586.671 68.296 587.716C68.936 588.783 69.256 589.967 69.256 591.268C69.256 592.484 69.0213 593.487 68.552 594.276C68.104 595.065 67.528 595.652 66.824 596.036H76.04V599.428H53V596.516L55.336 596.228V596.036C54.504 595.609 53.8427 595.001 53.352 594.212C52.8613 593.444 52.616 592.452 52.616 591.236ZM55.848 591.94C55.848 593.156 56.2747 594.159 57.128 594.948C57.9813 595.759 59.2507 596.164 60.936 596.164C62.6427 596.164 63.912 595.759 64.744 594.948C65.5973 594.159 66.024 593.156 66.024 591.94C66.024 590.724 65.5973 589.711 64.744 588.9C63.8907 588.111 62.6107 587.716 60.904 587.716C59.2187 587.716 57.9493 588.111 57.096 588.9C56.264 589.711 55.848 590.724 55.848 591.94ZM49.96 603.864H53L53 618.712H49.96L49.96 603.864Z" fill="white"/>
</g>
<rect y="22" width="15" height="5" fill="#EDEDED"/>
<rect y="633" width="15" height="5" fill="#EDEDED"/>
<defs>
<clipPath id="clip0_438_2466">
<rect width="97" height="661" fill="white" transform="translate(15)"/>
</clipPath>
</defs>
</svg>
