<svg width="1346" height="2809" viewBox="0 0 1346 2809" fill="none" xmlns="http://www.w3.org/2000/svg">
<circle cx="1185.55" cy="600.552" r="104.553" fill="#173A52"/>
<circle cx="1303.84" cy="647.104" r="59.5263" fill="#173A52"/>
<rect x="1052" y="647.105" width="363.263" height="80.8947" rx="40.4473" fill="#173A52"/>
<circle cx="468.798" cy="226.798" r="226.798" fill="#173A52"/>
<circle cx="736" cy="408" r="166" fill="#173A52"/>
<rect x="320" y="430" width="701" height="175" rx="87.5" fill="#173A52"/>
<circle cx="78.8218" cy="78.8218" r="78.8218" transform="matrix(-1 0 0 1 252 459)" fill="#005271"/>
<circle cx="44.8766" cy="44.8766" r="44.8766" transform="matrix(-1 0 0 1 128.879 528.041)" fill="#005271"/>
<rect width="243.626" height="60.8197" rx="30.4099" transform="matrix(-1 0 0 1 243.626 572.994)" fill="#005271"/>
<circle cx="716.769" cy="432.769" r="89.7692" fill="#005271"/>
<circle cx="613.5" cy="448.5" r="58.5" fill="#005271"/>
<circle cx="818.331" cy="472.739" r="51.1095" fill="#005271"/>
<rect x="551" y="473" width="363" height="69" rx="34.5" fill="#005271"/>
<circle cx="1243.41" cy="1541.04" r="59.0361" fill="#173A52"/>
<circle cx="1310.2" cy="1567.32" r="33.6118" fill="#173A52"/>
<rect x="1168" y="1567.32" width="205.118" height="45.6776" rx="22.8388" fill="#173A52"/>
<rect x="1330" y="1724" width="205.118" height="25" rx="12.5" fill="#173A52"/>
<rect x="1270" y="1781" width="205.118" height="25" rx="12.5" fill="#173A52"/>
<circle cx="1377.92" cy="2007.79" r="97.7926" fill="#173A52"/>
<rect x="1253" y="2051.34" width="339.776" height="75.6644" rx="37.8322" fill="#173A52"/>
<circle cx="1256.92" cy="2689.79" r="97.7926" fill="#173A52"/>
<circle cx="1367.55" cy="2733.34" r="55.6776" fill="#173A52"/>
<rect x="1132" y="2733.34" width="339.776" height="75.6644" rx="37.8322" fill="#173A52"/>
</svg>
