<svg width="769" height="917" viewBox="0 0 769 917" fill="none" xmlns="http://www.w3.org/2000/svg">
<rect width="242" height="50" rx="25" transform="matrix(0 -1 -1 0 401 917)" fill="#88D8DD"/>
<rect width="158" height="50" rx="25" transform="matrix(0 -1 -1 0 695 771)" fill="#9EE7E5"/>
<rect x="273" y="828" width="241" height="50" rx="25" transform="rotate(-90 273 828)" fill="#88D8DD"/>
<g clip-path="url(#clip0_376_4253)">
<path d="M396.37 311.962C396.37 311.962 418.099 294.171 410.039 279.741C401.978 265.311 383.229 286.408 383.229 286.408L370.806 297.813L377.08 326.756C383.793 322.199 390.233 317.26 396.37 311.962V311.962Z" fill="#EFEFEF"/>
<path d="M329.522 334.875L359.67 345.136L357.903 350.328C356.554 354.294 353.671 357.557 349.889 359.399C346.108 361.241 341.738 361.511 337.74 360.151C333.742 358.79 330.444 355.909 328.571 352.143C326.699 348.376 326.405 344.032 327.755 340.067L329.522 334.875V334.875Z" fill="#EFEFEF"/>
<path d="M216.107 296.273L246.367 306.572L244.631 311.675C243.958 313.65 242.9 315.473 241.517 317.039C240.134 318.604 238.453 319.882 236.569 320.8C234.686 321.717 232.637 322.256 230.54 322.386C228.443 322.516 226.338 322.234 224.347 321.556V321.556C220.343 320.174 217.045 317.274 215.176 313.492C213.306 309.71 213.016 305.354 214.37 301.376L216.107 296.273Z" fill="black"/>
<path d="M377.273 187.54C377.273 187.54 427.409 170.094 435.401 191.777C444.599 216.668 385.855 220.911 385.855 220.911L377.273 187.54Z" fill="#FFCACA"/>
<path d="M422.241 191.581C425.663 192.746 426.307 194.302 426.513 195.015C426.815 195.556 426.962 196.167 426.937 196.784C426.912 197.4 426.717 197.996 426.373 198.508C423.939 202.284 411.92 208.269 392.956 210.826L388.692 194.025C399.789 191.118 414.324 188.886 422.309 191.604L422.241 191.581ZM425.329 182.729C408.175 176.891 377.318 187.629 377.318 187.629L385.922 221.007C385.922 221.007 444.755 216.796 435.468 191.874C434.611 189.677 433.25 187.707 431.493 186.121C429.737 184.534 427.634 183.376 425.351 182.737L425.329 182.729Z" fill="black"/>
<path d="M394.431 182.809C400.4 178.465 405.629 173.2 409.922 167.212C410.486 166.447 410.802 165.529 410.829 164.579C410.855 163.629 410.591 162.692 410.07 161.892C409.55 161.093 408.798 160.467 407.914 160.1C407.03 159.732 406.056 159.64 405.121 159.834C396.799 161.411 388.737 164.106 381.157 167.844C367.497 175.201 394.431 182.809 394.431 182.809Z" fill="#FFC145"/>
<path d="M327.736 350.755C320.753 350.197 313.814 349.175 306.965 347.696C296.476 345.476 286.135 342.602 276.004 339.089C267.17 336.125 258.497 332.702 250.021 328.834C186.935 299.935 199.909 269.074 199.909 269.074C199.909 269.074 209.295 241.497 214.081 229.782C222.515 208.67 232.777 188.333 244.752 168.998C250.935 159.384 259.571 151.574 269.786 146.357C280.001 141.14 291.434 138.702 302.93 139.287C319.656 140.127 336.109 143.933 351.514 150.525C360.164 154.219 368.424 158.764 376.17 164.092L376.394 164.168C385.87 170.681 393.46 179.556 398.398 189.895C403.336 200.235 405.447 211.673 404.517 223.054C403.546 231.592 402.11 240.07 400.215 248.45C394.341 277 384.007 316.236 379.249 330.213C379.272 330.146 372.782 354.055 327.736 350.755Z" fill="white"/>
<path d="M306.958 347.718C296.468 345.498 286.127 342.624 275.996 339.111C267.163 336.147 258.49 332.724 250.013 328.856C186.927 299.957 199.902 269.096 199.902 269.096C199.902 269.096 209.288 241.519 214.074 229.804C214.074 229.804 265.047 240.692 262.893 280.163C262.663 283.555 262.896 286.966 263.585 290.301C269.406 317.558 307.394 310.287 307.006 346.843C307.014 347.135 306.997 347.428 306.958 347.718V347.718Z" fill="black"/>
<path d="M400.215 248.45C383.058 231.915 394.77 203.15 369.542 194.563C339.416 184.309 351.416 150.591 351.416 150.591C360.067 154.285 368.327 158.829 376.073 164.157L376.296 164.233C385.772 170.747 393.363 179.622 398.301 189.961C403.239 200.301 405.35 211.739 404.419 223.119C403.478 231.634 402.075 240.09 400.215 248.45V248.45Z" fill="black"/>
<path d="M341.413 321.643L335.251 339.746C333.798 344.029 331.201 347.834 327.736 350.755V350.755C310.076 349.052 292.693 345.132 276.004 339.089C267.17 336.125 258.497 332.702 250.021 328.834L261.703 294.512C262.193 293.06 262.821 291.657 263.578 290.323C266.487 285.172 271.119 281.2 276.675 279.091C282.23 276.983 288.362 276.87 294.012 278.773L325.324 289.43C331.742 291.608 337.041 296.223 340.057 302.262C343.074 308.302 343.561 315.272 341.413 321.643V321.643Z" fill="#FFCACA"/>
<path d="M369.699 238.608C375.184 240.475 381.131 237.578 382.982 232.137C384.834 226.697 381.889 220.774 376.405 218.907C370.92 217.04 364.973 219.937 363.122 225.378C361.27 230.818 364.215 236.741 369.699 238.608Z" fill="black"/>
<path d="M289.967 211.47C295.451 213.337 301.398 210.44 303.25 205C305.101 199.559 302.157 193.636 296.672 191.769C291.188 189.903 285.241 192.8 283.389 198.24C281.538 203.68 284.482 209.604 289.967 211.47Z" fill="black"/>
<path d="M357.627 252.299C361.682 240.385 356.032 222.965 333.13 215.17C310.228 207.375 295.526 217.868 291.471 229.782C287.416 241.696 295.571 250.512 318.45 258.299C341.33 266.086 353.58 264.191 357.627 252.299Z" fill="#FFCACA"/>
<path d="M318.029 237.98C319.919 238.623 322.151 237.088 323.014 234.552C323.877 232.015 323.045 229.438 321.155 228.795C319.265 228.151 317.034 229.686 316.17 232.222C315.307 234.759 316.139 237.336 318.029 237.98Z" fill="black"/>
<path d="M337.957 244.762C339.846 245.405 342.078 243.871 342.942 241.334C343.805 238.798 342.973 236.22 341.083 235.577C339.193 234.934 336.961 236.468 336.098 239.005C335.235 241.541 336.067 244.119 337.957 244.762Z" fill="black"/>
<path d="M279.079 147.186C276.336 138.796 274.904 130.043 274.835 121.234C274.855 120.283 275.164 119.363 275.722 118.594C276.281 117.825 277.062 117.244 277.962 116.928C278.863 116.612 279.84 116.575 280.765 116.823C281.689 117.071 282.518 117.592 283.14 118.317C287.859 123.81 291.882 127.754 295.331 135.438C301.658 149.623 279.079 147.186 279.079 147.186Z" fill="#FFC145"/>
<path d="M276.163 161.84C277.898 160.74 279.391 159.304 280.553 157.617C281.716 155.931 282.524 154.027 282.93 152.02C283.336 150.013 283.332 147.943 282.917 145.934C282.502 143.925 281.686 142.017 280.516 140.323C271.527 127.361 256.722 110.588 243.476 117.17C227.477 125.167 240.372 147.405 250.501 161.052C252.827 164.194 256.265 166.345 260.116 167.067C263.968 167.79 267.945 167.03 271.239 164.942L276.163 161.84Z" fill="#FFCACA"/>
<path d="M252.117 125.508C257.709 127.411 265.22 134.745 272.732 145.596C273.185 146.25 273.501 146.988 273.661 147.765C273.82 148.542 273.82 149.343 273.661 150.118C273.502 150.894 273.187 151.629 272.734 152.28C272.282 152.93 271.701 153.482 271.028 153.903L266.149 157.02C265.387 157.504 264.524 157.808 263.624 157.91C262.725 158.011 261.813 157.907 260.958 157.605C259.804 157.22 258.797 156.488 258.077 155.511C247.384 141.102 244.576 131.829 245.509 127.913C245.698 127.358 245.843 126.492 247.735 125.551C248.402 125.221 249.136 125.044 249.883 125.032C250.63 125.021 251.37 125.176 252.05 125.485L252.117 125.508ZM255.071 116.611C253.197 115.9 251.197 115.582 249.198 115.677C247.198 115.772 245.242 116.278 243.453 117.162C227.455 125.159 240.35 147.398 250.479 161.045C252.808 164.182 256.245 166.329 260.095 167.051C263.945 167.773 267.921 167.017 271.216 164.934L276.096 161.817C277.831 160.717 279.324 159.281 280.486 157.595C281.649 155.908 282.457 154.004 282.863 151.997C283.269 149.99 283.265 147.92 282.85 145.911C282.435 143.902 281.619 141.994 280.449 140.3C274.065 131.047 264.71 119.892 255.071 116.611V116.611Z" fill="white"/>
<path d="M202.506 227.055C202.506 227.055 180.871 244.794 189.018 259.351C197.166 273.908 215.829 252.583 215.829 252.583L234.301 236.218L221.868 212.182C215.127 216.761 208.662 221.727 202.506 227.055V227.055Z" fill="white"/>
<path d="M305.296 329.501C305.002 329.403 304.729 329.247 304.494 329.044C304.259 328.841 304.066 328.594 303.927 328.317L297.373 314.946C297.151 314.397 297.145 313.786 297.357 313.235C297.569 312.684 297.983 312.234 298.515 311.974C299.048 311.715 299.661 311.665 300.231 311.835C300.801 312.005 301.287 312.382 301.591 312.891L308.183 326.152C308.323 326.429 308.406 326.731 308.427 327.04C308.449 327.349 308.409 327.659 308.309 327.952C308.209 328.245 308.052 328.515 307.846 328.747C307.641 328.978 307.391 329.167 307.111 329.302C306.838 329.453 306.536 329.549 306.225 329.583C305.913 329.617 305.598 329.59 305.296 329.501Z" fill="#FF8D8D"/>
<path d="M295.321 326.106C294.88 325.954 294.493 325.675 294.21 325.305C293.926 324.935 293.759 324.49 293.73 324.027C293.701 323.564 293.81 323.103 294.045 322.703C294.279 322.303 294.628 321.981 295.047 321.779L308.36 315.294C308.92 315.024 309.566 314.985 310.156 315.186C310.747 315.387 311.235 315.812 311.514 316.368C311.789 316.925 311.831 317.567 311.632 318.153C311.432 318.739 311.007 319.222 310.449 319.496L297.128 326.003C296.849 326.138 296.546 326.216 296.236 326.234C295.926 326.251 295.615 326.208 295.321 326.106Z" fill="#FF8D8D"/>
<path d="M276.861 207.009L272.186 205.419C266.677 203.543 260.705 206.449 258.847 211.907C256.989 217.366 259.949 223.311 265.458 225.186L270.132 226.777C275.642 228.652 281.614 225.747 283.472 220.288C285.329 214.83 282.37 208.885 276.861 207.009Z" fill="#FFD2D2"/>
<path d="M387.278 244.592L382.604 243.001C377.095 241.125 371.123 244.031 369.265 249.489C367.407 254.948 370.367 260.893 375.876 262.768L380.55 264.359C386.059 266.234 392.031 263.329 393.889 257.87C395.747 252.412 392.787 246.467 387.278 244.592Z" fill="#FFD2D2"/>
</g>
<rect x="204" y="613" width="565" height="91" rx="45.5" fill="#9EE7E5"/>
<rect x="204" y="613" width="147" height="91" rx="45.5" fill="#88D8DD"/>
<path fill-rule="evenodd" clip-rule="evenodd" d="M715.964 704C723.775 680.247 728 654.867 728 628.5C728 495.123 619.877 387 486.5 387C353.123 387 245 495.123 245 628.5C245 654.867 249.226 680.247 257.036 704H715.964Z" fill="#9EE7E5"/>
<mask id="mask0_376_4253" style="mask-type:alpha" maskUnits="userSpaceOnUse" x="245" y="387" width="484" height="317">
<path fill-rule="evenodd" clip-rule="evenodd" d="M715.964 704C723.775 680.247 728 654.867 728 628.5C728 495.123 619.877 387 486.5 387C353.123 387 245 495.123 245 628.5C245 654.867 249.226 680.247 257.036 704H715.964Z" fill="#9EE7E5"/>
</mask>
<g mask="url(#mask0_376_4253)">
<circle cx="419.5" cy="568.5" r="241.5" fill="#88D8DD"/>
<circle cx="532.5" cy="484.5" r="241.5" fill="#9EE7E5"/>
<rect opacity="0.15" x="207.613" y="586.885" width="341.395" height="39.1873" transform="rotate(-42.864 207.613 586.885)" fill="#005271"/>
</g>
<g opacity="0.15">
<path d="M449.487 561.861V540.065L404 585.786L414.747 596.812L449.487 561.861ZM553.137 548.239C549.767 531.211 537.028 518.439 535.566 516.928L504.301 485L486.433 502.944L485.161 504.221V526.017L504.237 506.86L522.021 525.016L524.734 527.784L524.925 527.975C524.925 527.975 526.112 529.146 527.744 531.104C532.75 536.881 536.305 543.778 538.109 551.219C540.653 563.99 541.925 579.039 527.744 597.301V619.821C529.08 618.651 529.864 617.82 530.224 617.522C542.942 605.007 550.551 592.363 553.54 578.847C555.608 568.736 555.478 558.295 553.159 548.239H553.137ZM458.432 615.522L457.966 615.288H457.733C456.347 614.561 455.028 613.713 453.79 612.755C452.624 611.924 451.204 610.818 449.551 609.391C446.965 607.263 443.743 604.368 439.822 600.516L431.025 591.491L420.173 602.389L428.927 611.35V611.477C442.471 624.76 449.424 628.506 451.989 629.591C460.11 633.608 468.911 636.056 477.933 636.807C482.079 637.132 486.246 637.046 490.375 636.552L491.371 636.445V620.822C480.117 622.612 468.587 620.755 458.453 615.522H458.432Z" fill="#0C82AE"/>
<path d="M449.487 561.861V540.065L404 585.786L414.747 596.812L449.487 561.861ZM553.137 548.239C549.767 531.211 537.028 518.439 535.566 516.928L504.301 485L486.433 502.944L485.161 504.221V526.017L504.237 506.86L522.021 525.016L524.734 527.784L524.925 527.975C524.925 527.975 526.112 529.146 527.744 531.104C532.75 536.881 536.305 543.778 538.109 551.219C540.653 563.99 541.925 579.039 527.744 597.301V619.821C529.08 618.651 529.864 617.82 530.224 617.522C542.942 605.007 550.551 592.363 553.54 578.847C555.608 568.736 555.478 558.295 553.159 548.239H553.137ZM458.432 615.522L457.966 615.288H457.733C456.347 614.561 455.028 613.713 453.79 612.755C452.624 611.924 451.204 610.818 449.551 609.391C446.965 607.263 443.743 604.368 439.822 600.516L431.025 591.491L420.173 602.389L428.927 611.35V611.477C442.471 624.76 449.424 628.506 451.989 629.591C460.11 633.608 468.911 636.056 477.933 636.807C482.079 637.132 486.246 637.046 490.375 636.552L491.371 636.445V620.822C480.117 622.612 468.587 620.755 458.453 615.522H458.432Z" fill="#0C82AE"/>
<path d="M449.487 561.861V540.065L404 585.786L414.747 596.812L449.487 561.861ZM553.137 548.239C549.767 531.211 537.028 518.439 535.566 516.928L504.301 485L486.433 502.944L485.161 504.221V526.017L504.237 506.86L522.021 525.016L524.734 527.784L524.925 527.975C524.925 527.975 526.112 529.146 527.744 531.104C532.75 536.881 536.305 543.778 538.109 551.219C540.653 563.99 541.925 579.039 527.744 597.301V619.821C529.08 618.651 529.864 617.82 530.224 617.522C542.942 605.007 550.551 592.363 553.54 578.847C555.608 568.736 555.478 558.295 553.159 548.239H553.137ZM458.432 615.522L457.966 615.288H457.733C456.347 614.561 455.028 613.713 453.79 612.755C452.624 611.924 451.204 610.818 449.551 609.391C446.965 607.263 443.743 604.368 439.822 600.516L431.025 591.491L420.173 602.389L428.927 611.35V611.477C442.471 624.76 449.424 628.506 451.989 629.591C460.11 633.608 468.911 636.056 477.933 636.807C482.079 637.132 486.246 637.046 490.375 636.552L491.371 636.445V620.822C480.117 622.612 468.587 620.755 458.453 615.522H458.432Z" fill="#0C82AE"/>
<path d="M449.487 561.861V540.065L404 585.786L414.747 596.812L449.487 561.861ZM553.137 548.239C549.767 531.211 537.028 518.439 535.566 516.928L504.301 485L486.433 502.944L485.161 504.221V526.017L504.237 506.86L522.021 525.016L524.734 527.784L524.925 527.975C524.925 527.975 526.112 529.146 527.744 531.104C532.75 536.881 536.305 543.778 538.109 551.219C540.653 563.99 541.925 579.039 527.744 597.301V619.821C529.08 618.651 529.864 617.82 530.224 617.522C542.942 605.007 550.551 592.363 553.54 578.847C555.608 568.736 555.478 558.295 553.159 548.239H553.137ZM458.432 615.522L457.966 615.288H457.733C456.347 614.561 455.028 613.713 453.79 612.755C452.624 611.924 451.204 610.818 449.551 609.391C446.965 607.263 443.743 604.368 439.822 600.516L431.025 591.491L420.173 602.389L428.927 611.35V611.477C442.471 624.76 449.424 628.506 451.989 629.591C460.11 633.608 468.911 636.056 477.933 636.807C482.079 637.132 486.246 637.046 490.375 636.552L491.371 636.445V620.822C480.117 622.612 468.587 620.755 458.453 615.522H458.432Z" fill="#0C82AE"/>
<path d="M449.487 561.861V540.065L404 585.786L414.747 596.812L449.487 561.861ZM553.137 548.239C549.767 531.211 537.028 518.439 535.566 516.928L504.301 485L486.433 502.944L485.161 504.221V526.017L504.237 506.86L522.021 525.016L524.734 527.784L524.925 527.975C524.925 527.975 526.112 529.146 527.744 531.104C532.75 536.881 536.305 543.778 538.109 551.219C540.653 563.99 541.925 579.039 527.744 597.301V619.821C529.08 618.651 529.864 617.82 530.224 617.522C542.942 605.007 550.551 592.363 553.54 578.847C555.608 568.736 555.478 558.295 553.159 548.239H553.137ZM458.432 615.522L457.966 615.288H457.733C456.347 614.561 455.028 613.713 453.79 612.755C452.624 611.924 451.204 610.818 449.551 609.391C446.965 607.263 443.743 604.368 439.822 600.516L431.025 591.491L420.173 602.389L428.927 611.35V611.477C442.471 624.76 449.424 628.506 451.989 629.591C460.11 633.608 468.911 636.056 477.933 636.807C482.079 637.132 486.246 637.046 490.375 636.552L491.371 636.445V620.822C480.117 622.612 468.587 620.755 458.453 615.522H458.432Z" fill="#0C82AE"/>
<path d="M477.509 511.926V604.985H457.181V532.36L459.216 530.317L460.319 529.21L466.465 523.037L470.62 518.865L471.976 517.503L476.152 513.31L477.509 511.926Z" fill="#0C82AE"/>
<path d="M477.509 511.926V604.985H457.181V532.36L459.216 530.317L460.319 529.21L466.465 523.037L470.62 518.865L471.976 517.503L476.152 513.31L477.509 511.926Z" fill="#0C82AE"/>
<path d="M477.509 511.926V604.985H457.181V532.36L459.216 530.317L460.319 529.21L466.465 523.037L470.62 518.865L471.976 517.503L476.152 513.31L477.509 511.926Z" fill="#0C82AE"/>
<path d="M477.509 511.926V604.985H457.181V532.36L459.216 530.317L460.319 529.21L466.465 523.037L470.62 518.865L471.976 517.503L476.152 513.31L477.509 511.926Z" fill="#0C82AE"/>
<path d="M477.509 511.926V604.985H457.181V532.36L459.216 530.317L460.319 529.21L466.465 523.037L470.62 518.865L471.976 517.503L476.152 513.31L477.509 511.926Z" fill="#0C82AE"/>
<path d="M520.071 532.721V625.568L519.817 625.759C518.884 626.355 517.888 626.972 516.828 627.568C516.489 627.781 516.128 627.973 515.768 628.164C514.835 628.696 513.839 629.229 512.822 629.739C511.804 630.25 510.893 630.676 509.875 631.123L508.201 631.847L505.912 632.741L504.046 633.401C502.775 633.826 501.461 634.231 500.104 634.593L499.108 634.848V532.721H520.071Z" fill="#0C82AE"/>
<path d="M520.071 532.721V625.568L519.817 625.759C518.884 626.355 517.888 626.972 516.828 627.568C516.489 627.781 516.128 627.973 515.768 628.164C514.835 628.696 513.839 629.229 512.822 629.739C511.804 630.25 510.893 630.676 509.875 631.123L508.201 631.847L505.912 632.741L504.046 633.401C502.775 633.826 501.461 634.231 500.104 634.593L499.108 634.848V532.721H520.071Z" fill="#0C82AE"/>
<path d="M520.071 532.721V625.568L519.817 625.759C518.884 626.355 517.888 626.972 516.828 627.568C516.489 627.781 516.128 627.973 515.768 628.164C514.835 628.696 513.839 629.229 512.822 629.739C511.804 630.25 510.893 630.676 509.875 631.123L508.201 631.847L505.912 632.741L504.046 633.401C502.775 633.826 501.461 634.231 500.104 634.593L499.108 634.848V532.721H520.071Z" fill="#0C82AE"/>
<path d="M520.071 532.721V625.568L519.817 625.759C518.884 626.355 517.888 626.972 516.828 627.568C516.489 627.781 516.128 627.973 515.768 628.164C514.835 628.696 513.839 629.229 512.822 629.739C511.804 630.25 510.893 630.676 509.875 631.123L508.201 631.847L505.912 632.741L504.046 633.401C502.775 633.826 501.461 634.231 500.104 634.593L499.108 634.848V532.721H520.071Z" fill="#0C82AE"/>
<path d="M520.071 532.721V625.568L519.817 625.759C518.884 626.355 517.888 626.972 516.828 627.568C516.489 627.781 516.128 627.973 515.768 628.164C514.835 628.696 513.839 629.229 512.822 629.739C511.804 630.25 510.893 630.676 509.875 631.123L508.201 631.847L505.912 632.741L504.046 633.401C502.775 633.826 501.461 634.231 500.104 634.593L499.108 634.848V532.721H520.071Z" fill="#0C82AE"/>
<path d="M499.108 557.263H477.509V578.336H499.108V557.263Z" fill="#0C82AE"/>
<path d="M499.108 557.263H477.509V578.336H499.108V557.263Z" fill="#0C82AE"/>
<path d="M499.108 557.263H477.509V578.336H499.108V557.263Z" fill="#0C82AE"/>
<path d="M499.108 557.263H477.509V578.336H499.108V557.263Z" fill="#0C82AE"/>
<path d="M499.108 557.263H477.509V578.336H499.108V557.263Z" fill="#0C82AE"/>
</g>
<path opacity="0.75" d="M573 456C605.5 465 642.5 499.5 653.5 529" stroke="white" stroke-width="18" stroke-linecap="round"/>
<path d="M735.113 473.875L742.804 461.209C742.978 460.888 743.273 460.645 743.577 460.48L756.946 453.196C758.353 452.423 758.353 450.487 756.946 449.671L743.62 442.344C743.282 442.179 743.021 441.901 742.848 441.615L735.121 428.992C734.314 427.655 732.257 427.655 731.406 428.992L723.714 441.658C723.54 441.98 723.245 442.223 722.941 442.388L709.572 449.671C708.165 450.444 708.165 452.38 709.572 453.196L722.941 460.48C723.28 460.645 723.54 460.922 723.714 461.209L731.406 473.875C732.257 475.212 734.314 475.212 735.121 473.875H735.113Z" fill="#FFC53D"/>
<path d="M694.867 424.742L699.451 416.53C699.556 416.321 699.729 416.165 699.911 416.061L707.889 411.338C708.731 410.844 708.731 409.585 707.889 409.055L699.938 404.306C699.738 404.202 699.581 404.02 699.477 403.838L694.867 395.651C694.381 394.783 693.157 394.783 692.654 395.651L688.07 403.864C687.966 404.072 687.792 404.228 687.61 404.332L679.632 409.055C678.79 409.55 678.79 410.809 679.632 411.338L687.61 416.061C687.809 416.165 687.966 416.348 688.07 416.53L692.654 424.742C693.166 425.611 694.39 425.611 694.867 424.742V424.742Z" fill="#FFC53D"/>
<path d="M50.2866 113.431L248.183 583.909L480.777 387.64L50.2866 113.431Z" fill="#FFBB4D"/>
<mask id="mask1_376_4253" style="mask-type:alpha" maskUnits="userSpaceOnUse" x="50" y="113" width="431" height="471">
<path d="M50.2852 113.316L248.182 583.794L480.775 387.525L50.2852 113.316Z" fill="#F0BF5E"/>
</mask>
<g mask="url(#mask1_376_4253)">
<line x1="-57.1415" y1="415.786" x2="132.991" y2="100.709" stroke="#F2B149" stroke-width="5"/>
<line x1="19.9154" y1="462.286" x2="210.048" y2="147.209" stroke="#F2B149" stroke-width="5"/>
<line x1="96.9722" y1="508.785" x2="287.105" y2="193.709" stroke="#F2B149" stroke-width="5"/>
<line x1="174.029" y1="555.285" x2="364.162" y2="240.209" stroke="#F2B149" stroke-width="5"/>
<line x1="251.086" y1="601.785" x2="441.219" y2="286.708" stroke="#F2B149" stroke-width="5"/>
<line x1="102.11" y1="138.506" x2="469.226" y2="163.996" stroke="#F2B149" stroke-width="5"/>
<line x1="95.8757" y1="228.29" x2="462.992" y2="253.78" stroke="#F2B149" stroke-width="5"/>
<line x1="89.6417" y1="318.074" x2="456.758" y2="343.564" stroke="#F2B149" stroke-width="5"/>
<line x1="83.4077" y1="407.858" x2="450.524" y2="433.348" stroke="#F2B149" stroke-width="5"/>
<line x1="77.1737" y1="497.642" x2="444.29" y2="523.132" stroke="#F2B149" stroke-width="5"/>
<path d="M254.806 636.306L-201.338 181.041L138.864 2.35721L254.806 636.306Z" fill="black" fill-opacity="0.05"/>
</g>
<circle opacity="0.75" cx="669.5" cy="561" r="9" fill="white"/>
<defs>
<clipPath id="clip0_376_4253">
<rect width="226" height="212" fill="white" transform="translate(237.309 102) rotate(18.7966)"/>
</clipPath>
</defs>
</svg>
