<svg width="858" height="917" viewBox="0 0 858 917" fill="none" xmlns="http://www.w3.org/2000/svg">
<rect width="242" height="50" rx="25" transform="matrix(0 -1 -1 0 485.059 917)" fill="#88D8DD"/>
<rect width="158" height="50" rx="25" transform="matrix(0 -1 -1 0 779.059 771)" fill="#9EE7E5"/>
<rect x="357.059" y="828" width="241" height="50" rx="25" transform="rotate(-90 357.059 828)" fill="#88D8DD"/>
<g clip-path="url(#clip0_573_1182)">
<path d="M413.581 334.875L443.729 345.136L441.962 350.328C440.612 354.294 437.73 357.557 433.948 359.399C430.167 361.241 425.796 361.511 421.798 360.151C417.8 358.79 414.502 355.909 412.63 352.143C410.757 348.376 410.464 344.032 411.814 340.067L413.581 334.875Z" fill="#EFEFEF"/>
<path d="M300.166 296.273L330.426 306.572L328.689 311.675C328.017 313.65 326.959 315.473 325.576 317.039C324.193 318.604 322.511 319.882 320.628 320.8C318.744 321.717 316.696 322.256 314.599 322.386C312.501 322.516 310.397 322.234 308.406 321.556C304.402 320.174 301.104 317.274 299.234 313.492C297.365 309.71 297.075 305.354 298.429 301.376L300.166 296.273Z" fill="black"/>
<path d="M461.332 187.54C461.332 187.54 511.467 170.094 519.46 191.777C528.657 216.668 469.914 220.911 469.914 220.911L461.332 187.54Z" fill="#FFCACA"/>
<path d="M506.3 191.581C509.722 192.746 510.365 194.302 510.572 195.015C510.874 195.556 511.02 196.167 510.996 196.784C510.971 197.4 510.776 197.996 510.431 198.508C507.998 202.284 495.978 208.269 477.015 210.826L472.75 194.025C483.847 191.118 498.383 188.886 506.367 191.604L506.3 191.581ZM509.388 182.729C492.233 176.891 461.376 187.629 461.376 187.629L469.981 221.007C469.981 221.007 528.814 216.796 519.527 191.874C518.669 189.677 517.308 187.707 515.552 186.121C513.795 184.534 511.692 183.376 509.41 182.737L509.388 182.729Z" fill="black"/>
<path d="M478.49 182.809C484.459 178.465 489.688 173.2 493.981 167.212C494.545 166.447 494.861 165.529 494.888 164.579C494.914 163.629 494.65 162.692 494.129 161.892C493.609 161.093 492.857 160.467 491.973 160.1C491.089 159.732 490.115 159.64 489.179 159.834C480.858 161.411 472.796 164.106 465.216 167.844C451.556 175.201 478.49 182.809 478.49 182.809Z" fill="#FFC145"/>
<path d="M411.794 350.755C404.812 350.197 397.873 349.175 391.024 347.696C380.534 345.476 370.193 342.602 360.063 339.089C351.229 336.125 342.556 332.702 334.079 328.834C270.993 299.935 283.968 269.074 283.968 269.074C283.968 269.074 293.354 241.497 298.14 229.782C306.574 208.67 316.836 188.333 328.811 168.998C334.994 159.384 343.629 151.574 353.844 146.357C364.06 141.14 375.493 138.702 386.989 139.287C403.714 140.127 420.168 143.933 435.572 150.525C444.223 154.219 452.483 158.764 460.229 164.092L460.452 164.168C469.928 170.681 477.519 179.556 482.457 189.895C487.395 200.235 489.506 211.673 488.575 223.054C487.605 231.592 486.169 240.07 484.274 248.45C478.4 277 468.065 316.236 463.308 330.213C463.331 330.146 456.84 354.055 411.794 350.755Z" fill="white"/>
<path d="M391.016 347.718C380.527 345.498 370.186 342.624 360.055 339.111C351.221 336.147 342.548 332.724 334.072 328.856C270.986 299.957 283.96 269.096 283.96 269.096C283.96 269.096 293.347 241.519 298.132 229.804C298.132 229.804 349.106 240.692 346.952 280.163C346.722 283.555 346.954 286.966 347.644 290.301C353.465 317.558 391.453 310.287 391.064 346.843C391.072 347.135 391.056 347.428 391.016 347.718Z" fill="black"/>
<path d="M484.274 248.45C467.117 231.915 478.829 203.15 453.601 194.563C423.475 184.309 435.475 150.591 435.475 150.591C444.126 154.285 452.386 158.829 460.131 164.157L460.355 164.233C469.831 170.747 477.422 179.622 482.36 189.961C487.298 200.301 489.408 211.739 488.478 223.119C487.537 231.634 486.134 240.09 484.274 248.45Z" fill="black"/>
<path d="M425.471 321.643L419.31 339.746C417.857 344.029 415.259 347.834 411.794 350.755C394.134 349.052 376.752 345.132 360.063 339.089C351.229 336.125 342.556 332.702 334.08 328.834L345.761 294.512C346.252 293.06 346.88 291.657 347.636 290.323C350.546 285.172 355.177 281.2 360.733 279.091C366.289 276.983 372.421 276.87 378.071 278.773L409.383 289.43C415.801 291.608 421.1 296.223 424.116 302.262C427.133 308.302 427.62 315.272 425.471 321.643Z" fill="#FFCACA"/>
<path d="M453.758 238.608C459.242 240.475 465.189 237.578 467.041 232.137C468.893 226.697 465.948 220.774 460.463 218.907C454.979 217.04 449.032 219.937 447.18 225.378C445.329 230.818 448.274 236.741 453.758 238.608Z" fill="black"/>
<path d="M374.026 211.47C379.51 213.337 385.457 210.44 387.308 205C389.16 199.559 386.215 193.636 380.731 191.769C375.247 189.903 369.3 192.8 367.448 198.24C365.596 203.68 368.541 209.604 374.026 211.47Z" fill="black"/>
<path d="M441.686 252.299C445.741 240.385 440.091 222.965 417.189 215.17C394.286 207.375 379.584 217.868 375.529 229.782C371.474 241.696 379.629 250.512 402.509 258.299C425.389 266.086 437.639 264.191 441.686 252.299Z" fill="#FFCACA"/>
<path d="M402.088 237.98C403.978 238.623 406.21 237.088 407.073 234.552C407.936 232.015 407.104 229.438 405.214 228.795C403.324 228.151 401.092 229.686 400.229 232.222C399.366 234.759 400.198 237.336 402.088 237.98Z" fill="black"/>
<path d="M422.015 244.762C423.905 245.405 426.137 243.871 427 241.334C427.864 238.798 427.031 236.22 425.142 235.577C423.252 234.934 421.02 236.468 420.157 239.005C419.293 241.541 420.126 244.119 422.015 244.762Z" fill="black"/>
<path d="M363.138 147.186C360.394 138.796 358.963 130.043 358.894 121.234C358.913 120.283 359.223 119.363 359.781 118.594C360.34 117.825 361.121 117.244 362.021 116.928C362.922 116.612 363.899 116.575 364.823 116.823C365.748 117.071 366.576 117.592 367.199 118.317C371.918 123.81 375.941 127.754 379.39 135.438C385.717 149.623 363.138 147.186 363.138 147.186Z" fill="#FFC145"/>
<path d="M360.222 161.84C361.956 160.74 363.449 159.304 364.612 157.617C365.774 155.931 366.583 154.027 366.989 152.02C367.395 150.013 367.391 147.943 366.976 145.934C366.561 143.925 365.745 142.017 364.575 140.323C355.586 127.361 340.78 110.588 327.534 117.17C311.536 125.167 324.431 147.405 334.56 161.052C336.886 164.194 340.323 166.345 344.175 167.067C348.027 167.79 352.003 167.03 355.298 164.942L360.222 161.84Z" fill="#FFCACA"/>
<path d="M336.176 125.508C341.768 127.411 349.279 134.745 356.791 145.596C357.244 146.25 357.56 146.988 357.719 147.765C357.879 148.542 357.879 149.343 357.72 150.118C357.561 150.894 357.246 151.629 356.793 152.28C356.341 152.93 355.76 153.482 355.087 153.903L350.207 157.02C349.446 157.504 348.583 157.808 347.683 157.91C346.784 158.011 345.872 157.907 345.017 157.605C343.863 157.22 342.856 156.488 342.136 155.511C331.443 141.102 328.634 131.829 329.568 127.913C329.757 127.358 329.902 126.492 331.794 125.551C332.461 125.221 333.195 125.044 333.942 125.032C334.688 125.021 335.429 125.176 336.109 125.485L336.176 125.508ZM339.13 116.611C337.256 115.9 335.256 115.582 333.257 115.677C331.257 115.772 329.301 116.278 327.512 117.162C311.513 125.159 324.408 147.398 334.538 161.045C336.867 164.182 340.304 166.329 344.154 167.051C348.004 167.773 351.979 167.017 355.275 164.934L360.154 161.817C361.889 160.717 363.382 159.281 364.545 157.595C365.707 155.908 366.516 154.004 366.922 151.997C367.328 149.99 367.323 147.92 366.909 145.911C366.494 143.902 365.678 141.994 364.508 140.3C358.124 131.047 348.769 119.892 339.13 116.611Z" fill="white"/>
<path d="M286.565 227.055C286.565 227.055 264.93 244.794 273.077 259.351C281.224 273.908 299.888 252.583 299.888 252.583L318.36 236.218L305.927 212.182C299.186 216.761 292.721 221.727 286.565 227.055Z" fill="white"/>
<path d="M389.355 329.501C389.06 329.403 388.787 329.247 388.553 329.044C388.318 328.841 388.125 328.594 387.986 328.317L381.432 314.946C381.21 314.397 381.204 313.786 381.416 313.235C381.628 312.684 382.041 312.234 382.574 311.974C383.107 311.715 383.72 311.665 384.29 311.835C384.86 312.005 385.346 312.382 385.65 312.891L392.242 326.152C392.382 326.429 392.464 326.731 392.486 327.04C392.508 327.349 392.467 327.659 392.368 327.952C392.268 328.245 392.111 328.515 391.905 328.747C391.7 328.978 391.45 329.167 391.17 329.302C390.897 329.453 390.595 329.549 390.284 329.583C389.972 329.617 389.656 329.59 389.355 329.501Z" fill="#FF8D8D"/>
<path d="M379.38 326.106C378.939 325.954 378.552 325.675 378.268 325.305C377.985 324.935 377.818 324.49 377.789 324.027C377.759 323.564 377.869 323.103 378.103 322.703C378.338 322.303 378.687 321.981 379.106 321.779L392.419 315.294C392.978 315.024 393.624 314.985 394.215 315.186C394.806 315.387 395.294 315.812 395.572 316.368C395.847 316.925 395.89 317.567 395.69 318.153C395.491 318.739 395.066 319.222 394.508 319.496L381.187 326.003C380.908 326.138 380.605 326.216 380.295 326.234C379.985 326.251 379.674 326.208 379.38 326.106Z" fill="#FF8D8D"/>
<path d="M360.919 207.009L356.245 205.419C350.736 203.543 344.764 206.449 342.906 211.907C341.048 217.366 344.008 223.311 349.517 225.186L354.191 226.777C359.7 228.652 365.672 225.747 367.53 220.288C369.388 214.83 366.428 208.885 360.919 207.009Z" fill="#FFD2D2"/>
<path d="M471.337 244.592L466.663 243.001C461.154 241.125 455.182 244.031 453.324 249.489C451.466 254.948 454.426 260.893 459.935 262.768L464.609 264.359C470.118 266.234 476.09 263.329 477.948 257.87C479.806 252.412 476.846 246.467 471.337 244.592Z" fill="#FFD2D2"/>
</g>
<rect x="288.059" y="613" width="565" height="91" rx="45.5" fill="#9EE7E5"/>
<rect x="288.059" y="613" width="147" height="91" rx="45.5" fill="#88D8DD"/>
<path fill-rule="evenodd" clip-rule="evenodd" d="M800.023 704C807.833 680.247 812.059 654.867 812.059 628.5C812.059 495.123 703.936 387 570.559 387C437.182 387 329.059 495.123 329.059 628.5C329.059 654.867 333.284 680.247 341.095 704H800.023Z" fill="#9EE7E5"/>
<mask id="mask0_573_1182" style="mask-type:alpha" maskUnits="userSpaceOnUse" x="329" y="387" width="484" height="317">
<path fill-rule="evenodd" clip-rule="evenodd" d="M800.023 704C807.833 680.247 812.059 654.867 812.059 628.5C812.059 495.123 703.936 387 570.559 387C437.182 387 329.059 495.123 329.059 628.5C329.059 654.867 333.284 680.247 341.095 704H800.023Z" fill="#9EE7E5"/>
</mask>
<g mask="url(#mask0_573_1182)">
<circle cx="503.559" cy="568.5" r="241.5" fill="#88D8DD"/>
<circle cx="616.559" cy="484.5" r="241.5" fill="#9EE7E5"/>
<rect opacity="0.15" x="291.672" y="586.885" width="341.395" height="39.1873" transform="rotate(-42.864 291.672 586.885)" fill="#005271"/>
</g>
<g opacity="0.15">
<path d="M533.546 561.861V540.065L488.059 585.786L498.805 596.812L533.546 561.861ZM637.196 548.239C633.826 531.211 621.087 518.439 619.624 516.928L588.36 485L570.491 502.944L569.219 504.221V526.017L588.296 506.86L606.08 525.016L608.793 527.784L608.984 527.975C608.984 527.975 610.171 529.146 611.803 531.104C616.809 536.881 620.363 543.778 622.168 551.219C624.711 563.99 625.983 579.039 611.803 597.301V619.821C613.138 618.651 613.922 617.82 614.283 617.522C627 605.007 634.61 592.363 637.599 578.847C639.667 568.736 639.537 558.295 637.217 548.239H637.196ZM542.491 615.522L542.025 615.288H541.791C540.406 614.561 539.087 613.713 537.849 612.755C536.683 611.924 535.263 610.818 533.61 609.391C531.024 607.263 527.802 604.368 523.88 600.516L515.084 591.491L504.232 602.389L512.986 611.35V611.477C526.53 624.76 533.483 628.506 536.047 629.591C544.169 633.608 552.97 636.056 561.992 636.807C566.137 637.132 570.305 637.046 574.434 636.552L575.43 636.445V620.822C564.175 622.612 552.645 620.755 542.512 615.522H542.491Z" fill="#0C82AE"/>
<path d="M533.546 561.861V540.065L488.059 585.786L498.805 596.812L533.546 561.861ZM637.196 548.239C633.826 531.211 621.087 518.439 619.624 516.928L588.36 485L570.491 502.944L569.219 504.221V526.017L588.296 506.86L606.08 525.016L608.793 527.784L608.984 527.975C608.984 527.975 610.171 529.146 611.803 531.104C616.809 536.881 620.363 543.778 622.168 551.219C624.711 563.99 625.983 579.039 611.803 597.301V619.821C613.138 618.651 613.922 617.82 614.283 617.522C627 605.007 634.61 592.363 637.599 578.847C639.667 568.736 639.537 558.295 637.217 548.239H637.196ZM542.491 615.522L542.025 615.288H541.791C540.406 614.561 539.087 613.713 537.849 612.755C536.683 611.924 535.263 610.818 533.61 609.391C531.024 607.263 527.802 604.368 523.88 600.516L515.084 591.491L504.232 602.389L512.986 611.35V611.477C526.53 624.76 533.483 628.506 536.047 629.591C544.169 633.608 552.97 636.056 561.992 636.807C566.137 637.132 570.305 637.046 574.434 636.552L575.43 636.445V620.822C564.175 622.612 552.645 620.755 542.512 615.522H542.491Z" fill="#0C82AE"/>
<path d="M533.546 561.861V540.065L488.059 585.786L498.805 596.812L533.546 561.861ZM637.196 548.239C633.826 531.211 621.087 518.439 619.624 516.928L588.36 485L570.491 502.944L569.219 504.221V526.017L588.296 506.86L606.08 525.016L608.793 527.784L608.984 527.975C608.984 527.975 610.171 529.146 611.803 531.104C616.809 536.881 620.363 543.778 622.168 551.219C624.711 563.99 625.983 579.039 611.803 597.301V619.821C613.138 618.651 613.922 617.82 614.283 617.522C627 605.007 634.61 592.363 637.599 578.847C639.667 568.736 639.537 558.295 637.217 548.239H637.196ZM542.491 615.522L542.025 615.288H541.791C540.406 614.561 539.087 613.713 537.849 612.755C536.683 611.924 535.263 610.818 533.61 609.391C531.024 607.263 527.802 604.368 523.88 600.516L515.084 591.491L504.232 602.389L512.986 611.35V611.477C526.53 624.76 533.483 628.506 536.047 629.591C544.169 633.608 552.97 636.056 561.992 636.807C566.137 637.132 570.305 637.046 574.434 636.552L575.43 636.445V620.822C564.175 622.612 552.645 620.755 542.512 615.522H542.491Z" fill="#0C82AE"/>
<path d="M533.546 561.861V540.065L488.059 585.786L498.805 596.812L533.546 561.861ZM637.196 548.239C633.826 531.211 621.087 518.439 619.624 516.928L588.36 485L570.491 502.944L569.219 504.221V526.017L588.296 506.86L606.08 525.016L608.793 527.784L608.984 527.975C608.984 527.975 610.171 529.146 611.803 531.104C616.809 536.881 620.363 543.778 622.168 551.219C624.711 563.99 625.983 579.039 611.803 597.301V619.821C613.138 618.651 613.922 617.82 614.283 617.522C627 605.007 634.61 592.363 637.599 578.847C639.667 568.736 639.537 558.295 637.217 548.239H637.196ZM542.491 615.522L542.025 615.288H541.791C540.406 614.561 539.087 613.713 537.849 612.755C536.683 611.924 535.263 610.818 533.61 609.391C531.024 607.263 527.802 604.368 523.88 600.516L515.084 591.491L504.232 602.389L512.986 611.35V611.477C526.53 624.76 533.483 628.506 536.047 629.591C544.169 633.608 552.97 636.056 561.992 636.807C566.137 637.132 570.305 637.046 574.434 636.552L575.43 636.445V620.822C564.175 622.612 552.645 620.755 542.512 615.522H542.491Z" fill="#0C82AE"/>
<path d="M533.546 561.861V540.065L488.059 585.786L498.805 596.812L533.546 561.861ZM637.196 548.239C633.826 531.211 621.087 518.439 619.624 516.928L588.36 485L570.491 502.944L569.219 504.221V526.017L588.296 506.86L606.08 525.016L608.793 527.784L608.984 527.975C608.984 527.975 610.171 529.146 611.803 531.104C616.809 536.881 620.363 543.778 622.168 551.219C624.711 563.99 625.983 579.039 611.803 597.301V619.821C613.138 618.651 613.922 617.82 614.283 617.522C627 605.007 634.61 592.363 637.599 578.847C639.667 568.736 639.537 558.295 637.217 548.239H637.196ZM542.491 615.522L542.025 615.288H541.791C540.406 614.561 539.087 613.713 537.849 612.755C536.683 611.924 535.263 610.818 533.61 609.391C531.024 607.263 527.802 604.368 523.88 600.516L515.084 591.491L504.232 602.389L512.986 611.35V611.477C526.53 624.76 533.483 628.506 536.047 629.591C544.169 633.608 552.97 636.056 561.992 636.807C566.137 637.132 570.305 637.046 574.434 636.552L575.43 636.445V620.822C564.175 622.612 552.645 620.755 542.512 615.522H542.491Z" fill="#0C82AE"/>
<path d="M561.567 511.926V604.985H541.24V532.36L543.275 530.317L544.377 529.21L550.524 523.037L554.679 518.865L556.035 517.503L560.211 513.31L561.567 511.926Z" fill="#0C82AE"/>
<path d="M561.567 511.926V604.985H541.24V532.36L543.275 530.317L544.377 529.21L550.524 523.037L554.679 518.865L556.035 517.503L560.211 513.31L561.567 511.926Z" fill="#0C82AE"/>
<path d="M561.567 511.926V604.985H541.24V532.36L543.275 530.317L544.377 529.21L550.524 523.037L554.679 518.865L556.035 517.503L560.211 513.31L561.567 511.926Z" fill="#0C82AE"/>
<path d="M561.567 511.926V604.985H541.24V532.36L543.275 530.317L544.377 529.21L550.524 523.037L554.679 518.865L556.035 517.503L560.211 513.31L561.567 511.926Z" fill="#0C82AE"/>
<path d="M561.567 511.926V604.985H541.24V532.36L543.275 530.317L544.377 529.21L550.524 523.037L554.679 518.865L556.035 517.503L560.211 513.31L561.567 511.926Z" fill="#0C82AE"/>
<path d="M604.13 532.721V625.568L603.875 625.759C602.943 626.355 601.946 626.972 600.887 627.568C600.547 627.781 600.187 627.973 599.827 628.164C598.894 628.696 597.898 629.229 596.88 629.739C595.863 630.25 594.952 630.676 593.934 631.123L592.26 631.847L589.97 632.741L588.105 633.401C586.833 633.826 585.519 634.231 584.163 634.593L583.167 634.848V532.721H604.13Z" fill="#0C82AE"/>
<path d="M604.13 532.721V625.568L603.875 625.759C602.943 626.355 601.946 626.972 600.887 627.568C600.547 627.781 600.187 627.973 599.827 628.164C598.894 628.696 597.898 629.229 596.88 629.739C595.863 630.25 594.952 630.676 593.934 631.123L592.26 631.847L589.97 632.741L588.105 633.401C586.833 633.826 585.519 634.231 584.163 634.593L583.167 634.848V532.721H604.13Z" fill="#0C82AE"/>
<path d="M604.13 532.721V625.568L603.875 625.759C602.943 626.355 601.946 626.972 600.887 627.568C600.547 627.781 600.187 627.973 599.827 628.164C598.894 628.696 597.898 629.229 596.88 629.739C595.863 630.25 594.952 630.676 593.934 631.123L592.26 631.847L589.97 632.741L588.105 633.401C586.833 633.826 585.519 634.231 584.163 634.593L583.167 634.848V532.721H604.13Z" fill="#0C82AE"/>
<path d="M604.13 532.721V625.568L603.875 625.759C602.943 626.355 601.946 626.972 600.887 627.568C600.547 627.781 600.187 627.973 599.827 628.164C598.894 628.696 597.898 629.229 596.88 629.739C595.863 630.25 594.952 630.676 593.934 631.123L592.26 631.847L589.97 632.741L588.105 633.401C586.833 633.826 585.519 634.231 584.163 634.593L583.167 634.848V532.721H604.13Z" fill="#0C82AE"/>
<path d="M604.13 532.721V625.568L603.875 625.759C602.943 626.355 601.946 626.972 600.887 627.568C600.547 627.781 600.187 627.973 599.827 628.164C598.894 628.696 597.898 629.229 596.88 629.739C595.863 630.25 594.952 630.676 593.934 631.123L592.26 631.847L589.97 632.741L588.105 633.401C586.833 633.826 585.519 634.231 584.163 634.593L583.167 634.848V532.721H604.13Z" fill="#0C82AE"/>
<path d="M583.167 557.263H561.567V578.336H583.167V557.263Z" fill="#0C82AE"/>
<path d="M583.167 557.263H561.567V578.336H583.167V557.263Z" fill="#0C82AE"/>
<path d="M583.167 557.263H561.567V578.336H583.167V557.263Z" fill="#0C82AE"/>
<path d="M583.167 557.263H561.567V578.336H583.167V557.263Z" fill="#0C82AE"/>
<path d="M583.167 557.263H561.567V578.336H583.167V557.263Z" fill="#0C82AE"/>
</g>
<path opacity="0.75" d="M657.059 456C689.559 465 726.559 499.5 737.559 529" stroke="white" stroke-width="18" stroke-linecap="round"/>
<path d="M819.171 473.875L826.863 461.209C827.036 460.888 827.332 460.645 827.636 460.48L841.005 453.196C842.411 452.423 842.411 450.487 841.005 449.671L827.679 442.344C827.34 442.179 827.08 441.901 826.906 441.615L819.18 428.992C818.372 427.655 816.315 427.655 815.464 428.992L807.772 441.658C807.599 441.98 807.304 442.223 807 442.388L793.63 449.671C792.224 450.444 792.224 452.38 793.63 453.196L807 460.48C807.338 460.645 807.599 460.922 807.772 461.209L815.464 473.875C816.315 475.212 818.372 475.212 819.18 473.875H819.171Z" fill="#FFC53D"/>
<path d="M778.926 424.742L783.51 416.53C783.614 416.321 783.787 416.165 783.97 416.061L791.948 411.338C792.79 410.844 792.79 409.585 791.948 409.055L783.996 404.306C783.796 404.202 783.64 404.02 783.536 403.838L778.926 395.651C778.44 394.783 777.216 394.783 776.712 395.651L772.128 403.864C772.024 404.072 771.851 404.228 771.668 404.332L763.69 409.055C762.848 409.55 762.848 410.809 763.69 411.338L771.668 416.061C771.868 416.165 772.024 416.348 772.128 416.53L776.712 424.742C777.224 425.611 778.448 425.611 778.926 424.742Z" fill="#FFC53D"/>
<path d="M134.345 113.431L332.242 583.909L564.835 387.64L134.345 113.431Z" fill="#FFBB4D"/>
<mask id="mask1_573_1182" style="mask-type:alpha" maskUnits="userSpaceOnUse" x="134" y="113" width="431" height="471">
<path d="M134.344 113.316L332.24 583.794L564.834 387.525L134.344 113.316Z" fill="#F0BF5E"/>
</mask>
<g mask="url(#mask1_573_1182)">
<line x1="26.9171" y1="415.786" x2="217.05" y2="100.709" stroke="#F2B149" stroke-width="5"/>
<line x1="103.974" y1="462.286" x2="294.107" y2="147.209" stroke="#F2B149" stroke-width="5"/>
<line x1="181.031" y1="508.785" x2="371.164" y2="193.709" stroke="#F2B149" stroke-width="5"/>
<line x1="258.088" y1="555.285" x2="448.221" y2="240.209" stroke="#F2B149" stroke-width="5"/>
<line x1="335.145" y1="601.785" x2="525.278" y2="286.708" stroke="#F2B149" stroke-width="5"/>
<line x1="186.168" y1="138.506" x2="553.284" y2="163.996" stroke="#F2B149" stroke-width="5"/>
<line x1="179.934" y1="228.29" x2="547.05" y2="253.78" stroke="#F2B149" stroke-width="5"/>
<line x1="173.7" y1="318.074" x2="540.816" y2="343.564" stroke="#F2B149" stroke-width="5"/>
<line x1="167.466" y1="407.858" x2="534.582" y2="433.348" stroke="#F2B149" stroke-width="5"/>
<line x1="161.232" y1="497.642" x2="528.349" y2="523.132" stroke="#F2B149" stroke-width="5"/>
<path d="M338.865 636.306L-117.279 181.041L222.922 2.35721L338.865 636.306Z" fill="black" fill-opacity="0.05"/>
</g>
<circle opacity="0.75" cx="753.559" cy="561" r="9" fill="white"/>
<defs>
<clipPath id="clip0_573_1182">
<rect width="226" height="212" fill="white" transform="translate(321.367 102) rotate(18.7966)"/>
</clipPath>
</defs>
</svg>
