<svg width="576" height="330" viewBox="0 0 576 330" fill="none" xmlns="http://www.w3.org/2000/svg">
<g clip-path="url(#clip0_1438_20066)">
<rect width="576" height="330" fill="#123041"/>
<circle opacity="0.5" cx="423.644" cy="246.703" r="188.679" fill="#123041"/>
<path d="M413.549 470.684L472.805 280.963H354.292L413.549 470.684Z" fill="#F0BF5E"/>
<mask id="mask0_1438_20066" style="mask-type:alpha" maskUnits="userSpaceOnUse" x="354" y="280" width="119" height="191">
<path d="M413.541 470.684L472.798 280.963H354.284L413.541 470.684Z" fill="#F0BF5E"/>
</mask>
<g mask="url(#mask0_1438_20066)">
</g>
<mask id="mask1_1438_20066" style="mask-type:alpha" maskUnits="userSpaceOnUse" x="354" y="280" width="119" height="191">
<path d="M413.541 470.684L472.798 280.963H354.284L413.541 470.684Z" fill="#F0BF5E"/>
</mask>
<g mask="url(#mask1_1438_20066)">
<path d="M273.272 362.524L511.383 283.241L423.931 161.814L273.272 362.524Z" fill="black" fill-opacity="0.05"/>
</g>
<path fill-rule="evenodd" clip-rule="evenodd" d="M354.664 277.852C338.565 262.741 328.527 241.389 328.527 217.722C328.527 171.916 366.124 134.784 412.502 134.784C458.88 134.784 496.477 171.916 496.477 217.722C496.477 241.389 486.439 262.741 470.34 277.852H354.664Z" fill="#9EE7E5"/>
<path fill-rule="evenodd" clip-rule="evenodd" d="M321.039 208.836C325.979 163.88 364.565 128.887 411.433 128.887C458.3 128.887 496.886 163.88 501.827 208.836H321.039Z" fill="white"/>
<rect x="324.387" y="246.75" width="178.316" height="35.2486" rx="17.6243" fill="#9EE7E5"/>
<rect width="33.7183" height="15.0656" rx="7.53282" transform="matrix(0 -1 -1 0 366.242 232.352)" fill="white"/>
<rect width="33.7183" height="15.0656" rx="7.53282" transform="matrix(0 -1 -1 0 366.242 232.352)" fill="white"/>
<rect width="33.7183" height="15.0656" rx="7.53282" transform="matrix(0 -1 -1 0 486.762 224.461)" fill="white"/>
<rect width="60.2625" height="15.0656" rx="7.53282" transform="matrix(0 -1 -1 0 411.438 239.527)" fill="white"/>
<rect width="46.6317" height="15.0656" rx="7.53282" transform="matrix(0 -1 -1 0 411.438 267.504)" fill="#9EE7E5"/>
<rect width="33.7183" height="15.0656" rx="7.53282" transform="matrix(0 -1 -1 0 441.566 231.637)" fill="white"/>
<rect width="33.7183" height="15.0656" rx="7.53282" transform="matrix(0 -1 -1 0 441.566 248.852)" fill="#9EE7E5"/>
<rect width="33.7183" height="15.0656" rx="7.53282" transform="matrix(0 -1 -1 0 456.637 230.199)" fill="white"/>
<rect width="33.7183" height="15.0656" rx="7.53282" transform="matrix(0 -1 -1 0 456.637 247.418)" fill="#9EE7E5"/>
<rect width="38.7402" height="15.0656" rx="7.53282" transform="matrix(0 -1 -1 0 486.762 247.418)" fill="#9EE7E5"/>
<rect width="33.7183" height="15.0656" rx="7.53282" transform="matrix(0 -1 -1 0 381.305 197.918)" fill="white"/>
<rect width="33.7183" height="15.0656" rx="7.53282" transform="matrix(0 -1 -1 0 351.18 217.285)" fill="white"/>
<rect width="33.7183" height="15.0656" rx="7.53282" transform="matrix(0 -1 -1 0 351.18 234.504)" fill="#9EE7E5"/>
<path d="M336.105 208.68V214.778C336.105 218.938 332.733 222.31 328.573 222.31C324.412 222.31 321.04 218.938 321.04 214.778V208.68H336.105Z" fill="white"/>
<path d="M501.836 208.68V227.691C501.836 231.851 498.463 235.224 494.303 235.224C490.143 235.224 486.77 231.851 486.77 227.691V208.68H501.836Z" fill="white"/>
<rect width="31.5661" height="15.0656" rx="7.53282" transform="matrix(0 -1 -1 0 471.699 230.918)" fill="white"/>
<rect width="57.3929" height="30.1313" rx="15.0656" transform="matrix(0 -1 -1 0 441.566 243.832)" fill="white"/>
<rect width="68.154" height="15.0656" rx="7.53282" transform="matrix(0 -1 -1 0 396.375 269.656)" fill="white"/>
<rect width="68.154" height="15.0656" rx="7.53282" transform="matrix(0 -1 -1 0 381.305 240.961)" fill="white"/>
<path opacity="0.5" fill-rule="evenodd" clip-rule="evenodd" d="M429.41 159.786C430.396 157.099 433.374 155.719 436.061 156.704C452.726 162.814 466.402 176.477 471.807 194.829C472.616 197.575 471.045 200.457 468.299 201.266C465.553 202.075 462.671 200.504 461.862 197.758C457.424 182.689 446.207 171.466 432.493 166.438C429.805 165.452 428.425 162.474 429.41 159.786Z" fill="white"/>
<rect width="33.7183" height="15.0656" rx="7.53282" transform="matrix(0 -1 -1 0 381.305 252.441)" fill="#9EE7E5"/>
<rect x="350.227" y="167.562" width="20.6573" height="6.08846" rx="3.04423" transform="rotate(-17.5572 350.227 167.562)" fill="#FFC5AB"/>
<rect x="326.43" y="176.395" width="20.6573" height="6.08846" rx="3.04423" transform="rotate(24.2216 326.43 176.395)" fill="#AFD157"/>
<rect x="396.824" y="154.875" width="20.6573" height="6.08846" rx="3.04423" transform="rotate(41.3124 396.824 154.875)" fill="#FF8F8F"/>
<rect x="452.992" y="182.137" width="20.6573" height="6.08846" rx="3.04423" transform="rotate(12.9424 452.992 182.137)" fill="#FFC5AB"/>
<rect x="429.324" y="154.875" width="20.6573" height="6.08846" rx="3.04423" transform="rotate(12.9424 429.324 154.875)" fill="#AFD157"/>
<rect x="413.609" y="138.039" width="20.6573" height="6.08846" rx="3.04423" transform="rotate(-40.0715 413.609 138.039)" fill="#FFF3DB"/>
<rect x="463.582" y="160.902" width="20.6573" height="6.08846" rx="3.04423" transform="rotate(-21.1876 463.582 160.902)" fill="#FFC53D"/>
<rect x="374.152" y="137.512" width="20.6573" height="6.08846" rx="3.04423" transform="rotate(-33.2764 374.152 137.512)" fill="#FFC53D"/>
<path d="M515.549 162.677L521.067 153.59C521.191 153.359 521.403 153.185 521.621 153.067L531.212 147.841C532.221 147.287 532.221 145.898 531.212 145.313L521.652 140.056C521.409 139.938 521.222 139.738 521.098 139.533L515.555 130.477C514.976 129.518 513.5 129.518 512.889 130.477L507.371 139.564C507.247 139.794 507.035 139.969 506.817 140.087L497.225 145.313C496.217 145.867 496.217 147.256 497.225 147.841L506.817 153.067C507.06 153.185 507.247 153.384 507.371 153.59L512.889 162.677C513.5 163.636 514.976 163.636 515.555 162.677H515.549Z" fill="#FFC53D"/>
<path d="M486.676 127.427L489.965 121.536C490.04 121.386 490.164 121.274 490.295 121.199L496.018 117.811C496.623 117.456 496.623 116.553 496.018 116.173L490.314 112.766C490.17 112.692 490.058 112.561 489.983 112.43L486.676 106.557C486.328 105.934 485.449 105.934 485.088 106.557L481.8 112.449C481.725 112.598 481.6 112.71 481.47 112.785L475.746 116.173C475.142 116.528 475.142 117.431 475.746 117.811L481.47 121.199C481.613 121.274 481.725 121.405 481.8 121.536L485.088 127.427C485.456 128.05 486.334 128.05 486.676 127.427Z" fill="#FFC53D"/>
<path d="M231.259 55.7913C231.259 55.7913 251.04 69.1288 245.441 81.985C239.843 94.8413 222.3 78.4682 222.3 78.4682L210.87 69.8061L213.763 44.8051C219.802 48.1273 225.644 51.7955 231.259 55.7913Z" fill="#EFD565"/>
<path d="M87.6153 105.682C105.658 118.617 126.964 126.249 149.117 127.712L149.305 127.779C159.013 128.442 168.722 126.536 177.45 122.252C186.178 117.967 193.616 111.458 199.013 103.38C209.281 87.9894 233.092 34.9068 238.884 18.7392C238.884 18.7392 252.977 -13.968 175.314 -41.7862C97.652 -69.6044 88.0743 -35.2799 88.0743 -35.2799C88.0743 -35.2799 79.7137 -11.9392 76.6903 -1.60239C71.1262 16.9283 67.1698 35.9047 64.8648 55.1167C63.8669 64.7923 65.4486 74.5624 69.4496 83.437C73.4505 92.3116 79.7286 99.9753 87.6475 105.651L87.6153 105.682Z" fill="#F2F2F2"/>
<path d="M87.6153 105.682C105.658 118.617 126.964 126.249 149.117 127.712L149.305 127.779C159.013 128.442 168.722 126.536 177.45 122.252C186.178 117.967 193.616 111.458 199.013 103.38C209.281 87.9894 233.092 34.9068 238.884 18.7392C238.884 18.7392 252.977 -13.968 175.314 -41.7862C97.652 -69.6044 88.0743 -35.2799 88.0743 -35.2799C88.0743 -35.2799 79.7137 -11.9392 76.6903 -1.60239C71.1262 16.9283 67.1698 35.9047 64.8648 55.1167C63.8669 64.7923 65.4486 74.5624 69.4496 83.437C73.4505 92.3116 79.7286 99.9753 87.6475 105.651L87.6153 105.682Z" fill="#FFE36C"/>
<path d="M184.181 74.7393C188.795 76.3918 191.198 81.4642 189.548 86.0687C187.899 90.6733 182.822 93.0664 178.209 91.414C173.595 89.7615 171.193 84.6891 172.842 80.0846C174.491 75.48 179.568 73.0869 184.181 74.7393Z" fill="black"/>
<path d="M117.103 50.7159C121.717 52.3684 124.119 57.4407 122.47 62.0453C120.821 66.6499 115.744 69.043 111.131 67.3905C106.517 65.738 104.114 60.6657 105.764 56.0611C107.413 51.4566 112.49 49.0634 117.103 50.7159Z" fill="black"/>
<path d="M66.9803 -2.51914C66.9803 -2.51914 61.4023 -25.7041 74.2352 -31.4255C87.068 -37.1469 88.9256 -13.1759 88.9256 -13.1759L91.4705 0.935185L72.4263 17.4193C70.2265 10.8834 68.4081 4.2261 66.9803 -2.51914Z" fill="#FFE36C"/>
<path d="M115.57 18.556C122.719 21.1166 126.442 28.9765 123.886 36.1115C121.33 43.2465 113.463 46.9548 106.315 44.3942C99.1662 41.8336 95.4429 33.9737 97.9986 26.8387C100.554 19.7037 108.421 15.9954 115.57 18.556Z" fill="#FFA052"/>
<path d="M205.226 50.6654C212.375 53.226 216.098 61.0859 213.542 68.2209C210.987 75.3559 203.12 79.0642 195.971 76.5036C188.822 73.943 185.099 66.0831 187.655 58.9481C190.211 51.8131 198.078 48.1048 205.226 50.6654Z" fill="#FFA052"/>
<path d="M168.529 52.3353L147.834 44.9225C144.996 43.9172 141.876 44.0741 139.157 45.359C136.437 46.6439 134.339 48.9522 133.321 51.7793C131.222 57.638 144.98 66.9941 150.869 69.1033C156.739 71.2059 173.308 72.7129 175.407 66.8543C176.416 64.0203 176.259 60.901 174.97 58.1796C173.681 55.4582 171.365 53.3567 168.529 52.3353Z" fill="#FFBB4D"/>
<path d="M114.438 120.144C114.438 120.144 111.052 132.088 115.557 142.325C115.665 142.566 115.84 142.772 116.06 142.918C116.281 143.064 116.539 143.145 116.803 143.151C117.068 143.157 117.329 143.088 117.555 142.952C117.782 142.816 117.965 142.618 118.084 142.382C120.811 137.189 124.395 132.492 128.686 128.489C129.898 127.555 131.297 126.892 132.788 126.541C134.279 126.191 135.827 126.163 137.331 126.458" fill="#FFE36C"/>
<path d="M127.912 124.396C120.737 126.403 114.08 129.929 108.394 134.735C108.195 134.914 107.949 135.032 107.685 135.076C107.421 135.119 107.15 135.086 106.904 134.98C106.658 134.874 106.448 134.7 106.298 134.478C106.148 134.256 106.065 133.996 106.059 133.729C106.264 130.357 106.907 127.027 107.973 123.821C108.426 122.282 108.327 120.632 107.693 119.156C107.06 117.68 105.931 116.47 104.501 115.735" fill="#FFE36C"/>
<circle cx="25.579" cy="25.579" r="25.579" transform="matrix(-0.835192 0.549959 0.549959 0.835192 315.988 78.4609)" fill="#FF8F8F"/>
<ellipse opacity="0.2" cx="7.83873" cy="4.95078" rx="7.83873" ry="4.95078" transform="matrix(-0.835192 0.549959 0.549959 0.835192 303.32 93.7227)" fill="black"/>
<path d="M299.501 102.166C285.136 86.1028 248.336 60.773 216.05 87.9603C206.835 95.7204 220.218 99.541 225.429 88.7001" stroke="#AFD157" stroke-width="6.60104" stroke-linecap="round"/>
</g>
<defs>
<clipPath id="clip0_1438_20066">
<rect width="576" height="330" fill="white"/>
</clipPath>
</defs>
</svg>
