<svg width="67" height="67" viewBox="0 0 67 67" fill="none" xmlns="http://www.w3.org/2000/svg">
<circle cx="33.5" cy="33.5" r="33.5" fill="#173A52"/>
<path d="M23.5688 33.238V27.2154L11 39.8488L13.9694 42.8954L23.5688 33.238ZM52.209 29.4739C51.2777 24.7687 47.7577 21.2398 47.3536 20.8222L38.7147 12L33.7774 16.9581L33.4259 17.311V23.3336L38.6971 18.0403L43.611 23.0572L44.3607 23.8218L44.4134 23.8747C44.4134 23.8747 44.7415 24.1982 45.1924 24.7393C46.5757 26.3355 47.5578 28.2414 48.0564 30.2973C48.7593 33.8262 49.1107 37.9844 45.1924 43.0307V49.2533C45.5614 48.9298 45.7781 48.7004 45.8776 48.6181C49.3918 45.1597 51.4944 41.6662 52.3202 37.9314C52.8916 35.1375 52.8557 32.2526 52.2148 29.4739H52.209ZM26.0404 48.0652L25.9116 48.0005H25.8472C25.4643 47.7997 25.0998 47.5655 24.7578 47.3006C24.4357 47.0712 24.0433 46.7654 23.5864 46.3713C22.8719 45.7832 21.9816 44.9833 20.8981 43.9188L18.4675 41.425L15.4688 44.4363L17.8877 46.9124V46.9477C21.6302 50.6178 23.5513 51.6529 24.26 51.9529C26.504 53.0628 28.9358 53.7392 31.4288 53.9467C32.5743 54.0365 33.7258 54.0128 34.8668 53.8761L35.142 53.8467V49.5297C32.0322 50.0244 28.8462 49.5114 26.0463 48.0652H26.0404Z" fill="#9EE7E5"/>
<path d="M31.3115 19.4402V45.154H25.6948V25.0864L26.2571 24.5218L26.5616 24.2159L28.2601 22.5103L29.4081 21.3575L29.7829 20.9811L30.9367 19.8225L31.3115 19.4402Z" fill="#9EE7E5"/>
<path d="M43.0722 25.186V50.841L43.0019 50.894C42.7442 51.0586 42.4689 51.2292 42.1761 51.3939C42.0824 51.4527 41.9828 51.5056 41.8832 51.5586C41.6255 51.7056 41.3502 51.8526 41.0691 51.9938C40.788 52.1349 40.5361 52.2526 40.255 52.3761L39.7923 52.5761L39.1598 52.8231L38.6444 53.0054C38.2929 53.123 37.9298 53.2348 37.555 53.3348L37.2797 53.4054V25.186H43.0722Z" fill="#9EE7E5"/>
<path d="M37.2798 31.9675H31.3116V37.7902H37.2798V31.9675Z" fill="#9EE7E5"/>
</svg>
