<svg width="151" height="152" viewBox="0 0 151 152" fill="none" xmlns="http://www.w3.org/2000/svg">
<path d="M45.4872 76.8614V55.0652L0 100.786L10.7464 111.812L45.4872 76.8614ZM149.137 63.2388C145.767 46.2105 133.028 33.4393 131.565 31.928L100.301 0L82.4325 17.9436L81.1605 19.2207V41.0169L100.237 21.8601L118.021 40.0165L120.734 42.7835L120.925 42.9751C120.925 42.9751 122.112 44.1458 123.744 46.104C128.75 51.8808 132.304 58.7784 134.109 66.2187C136.653 78.9899 137.924 94.0386 123.744 112.301V134.821C125.079 133.651 125.864 132.82 126.224 132.522C138.942 120.007 146.551 107.363 149.54 93.8471C151.608 83.7357 151.478 73.295 149.158 63.2388H149.137ZM54.432 130.522L53.9657 130.288H53.7326C52.3471 129.561 51.0279 128.713 49.7901 127.755C48.6243 126.924 47.2042 125.818 45.5508 124.391C42.9649 122.263 39.7429 119.368 35.8215 115.516L27.0253 106.491L16.1728 117.389L24.9269 126.35V126.477C38.4713 139.76 45.4237 143.506 47.9885 144.591C56.1097 148.608 64.9107 151.056 73.9327 151.807C78.0784 152.132 82.2459 152.046 86.3749 151.552L87.3711 151.445V135.822C76.1164 137.612 64.5864 135.755 54.4532 130.522H54.432Z" fill="#113041"/>
<path d="M45.4872 76.8614V55.0652L0 100.786L10.7464 111.812L45.4872 76.8614ZM149.137 63.2388C145.767 46.2105 133.028 33.4393 131.565 31.928L100.301 0L82.4325 17.9436L81.1605 19.2207V41.0169L100.237 21.8601L118.021 40.0165L120.734 42.7835L120.925 42.9751C120.925 42.9751 122.112 44.1458 123.744 46.104C128.75 51.8808 132.304 58.7784 134.109 66.2187C136.653 78.9899 137.924 94.0386 123.744 112.301V134.821C125.079 133.651 125.864 132.82 126.224 132.522C138.942 120.007 146.551 107.363 149.54 93.8471C151.608 83.7357 151.478 73.295 149.158 63.2388H149.137ZM54.432 130.522L53.9657 130.288H53.7326C52.3471 129.561 51.0279 128.713 49.7901 127.755C48.6243 126.924 47.2042 125.818 45.5508 124.391C42.9649 122.263 39.7429 119.368 35.8215 115.516L27.0253 106.491L16.1728 117.389L24.9269 126.35V126.477C38.4713 139.76 45.4237 143.506 47.9885 144.591C56.1097 148.608 64.9107 151.056 73.9327 151.807C78.0784 152.132 82.2459 152.046 86.3749 151.552L87.3711 151.445V135.822C76.1164 137.612 64.5864 135.755 54.4532 130.522H54.432Z" fill="#113041"/>
<path d="M45.4872 76.8614V55.0652L0 100.786L10.7464 111.812L45.4872 76.8614ZM149.137 63.2388C145.767 46.2105 133.028 33.4393 131.565 31.928L100.301 0L82.4325 17.9436L81.1605 19.2207V41.0169L100.237 21.8601L118.021 40.0165L120.734 42.7835L120.925 42.9751C120.925 42.9751 122.112 44.1458 123.744 46.104C128.75 51.8808 132.304 58.7784 134.109 66.2187C136.653 78.9899 137.924 94.0386 123.744 112.301V134.821C125.079 133.651 125.864 132.82 126.224 132.522C138.942 120.007 146.551 107.363 149.54 93.8471C151.608 83.7357 151.478 73.295 149.158 63.2388H149.137ZM54.432 130.522L53.9657 130.288H53.7326C52.3471 129.561 51.0279 128.713 49.7901 127.755C48.6243 126.924 47.2042 125.818 45.5508 124.391C42.9649 122.263 39.7429 119.368 35.8215 115.516L27.0253 106.491L16.1728 117.389L24.9269 126.35V126.477C38.4713 139.76 45.4237 143.506 47.9885 144.591C56.1097 148.608 64.9107 151.056 73.9327 151.807C78.0784 152.132 82.2459 152.046 86.3749 151.552L87.3711 151.445V135.822C76.1164 137.612 64.5864 135.755 54.4532 130.522H54.432Z" fill="#113041"/>
<path d="M45.4872 76.8614V55.0652L0 100.786L10.7464 111.812L45.4872 76.8614ZM149.137 63.2388C145.767 46.2105 133.028 33.4393 131.565 31.928L100.301 0L82.4325 17.9436L81.1605 19.2207V41.0169L100.237 21.8601L118.021 40.0165L120.734 42.7835L120.925 42.9751C120.925 42.9751 122.112 44.1458 123.744 46.104C128.75 51.8808 132.304 58.7784 134.109 66.2187C136.653 78.9899 137.924 94.0386 123.744 112.301V134.821C125.079 133.651 125.864 132.82 126.224 132.522C138.942 120.007 146.551 107.363 149.54 93.8471C151.608 83.7357 151.478 73.295 149.158 63.2388H149.137ZM54.432 130.522L53.9657 130.288H53.7326C52.3471 129.561 51.0279 128.713 49.7901 127.755C48.6243 126.924 47.2042 125.818 45.5508 124.391C42.9649 122.263 39.7429 119.368 35.8215 115.516L27.0253 106.491L16.1728 117.389L24.9269 126.35V126.477C38.4713 139.76 45.4237 143.506 47.9885 144.591C56.1097 148.608 64.9107 151.056 73.9327 151.807C78.0784 152.132 82.2459 152.046 86.3749 151.552L87.3711 151.445V135.822C76.1164 137.612 64.5864 135.755 54.4532 130.522H54.432Z" fill="#113041"/>
<path d="M45.4872 76.8614V55.0652L0 100.786L10.7464 111.812L45.4872 76.8614ZM149.137 63.2388C145.767 46.2105 133.028 33.4393 131.565 31.928L100.301 0L82.4325 17.9436L81.1605 19.2207V41.0169L100.237 21.8601L118.021 40.0165L120.734 42.7835L120.925 42.9751C120.925 42.9751 122.112 44.1458 123.744 46.104C128.75 51.8808 132.304 58.7784 134.109 66.2187C136.653 78.9899 137.924 94.0386 123.744 112.301V134.821C125.079 133.651 125.864 132.82 126.224 132.522C138.942 120.007 146.551 107.363 149.54 93.8471C151.608 83.7357 151.478 73.295 149.158 63.2388H149.137ZM54.432 130.522L53.9657 130.288H53.7326C52.3471 129.561 51.0279 128.713 49.7901 127.755C48.6243 126.924 47.2042 125.818 45.5508 124.391C42.9649 122.263 39.7429 119.368 35.8215 115.516L27.0253 106.491L16.1728 117.389L24.9269 126.35V126.477C38.4713 139.76 45.4237 143.506 47.9885 144.591C56.1097 148.608 64.9107 151.056 73.9327 151.807C78.0784 152.132 82.2459 152.046 86.3749 151.552L87.3711 151.445V135.822C76.1164 137.612 64.5864 135.755 54.4532 130.522H54.432Z" fill="#113041"/>
<path d="M73.5086 26.926V119.985H53.1814V47.3599L55.2162 45.3165L56.3184 44.2097L62.4654 38.037L66.6198 33.865L67.9764 32.5028L72.152 28.3096L73.5086 26.926Z" fill="#113041"/>
<path d="M73.5086 26.926V119.985H53.1814V47.3599L55.2162 45.3165L56.3184 44.2097L62.4654 38.037L66.6198 33.865L67.9764 32.5028L72.152 28.3096L73.5086 26.926Z" fill="#113041"/>
<path d="M73.5086 26.926V119.985H53.1814V47.3599L55.2162 45.3165L56.3184 44.2097L62.4654 38.037L66.6198 33.865L67.9764 32.5028L72.152 28.3096L73.5086 26.926Z" fill="#113041"/>
<path d="M73.5086 26.926V119.985H53.1814V47.3599L55.2162 45.3165L56.3184 44.2097L62.4654 38.037L66.6198 33.865L67.9764 32.5028L72.152 28.3096L73.5086 26.926Z" fill="#113041"/>
<path d="M73.5086 26.926V119.985H53.1814V47.3599L55.2162 45.3165L56.3184 44.2097L62.4654 38.037L66.6198 33.865L67.9764 32.5028L72.152 28.3096L73.5086 26.926Z" fill="#113041"/>
<path d="M116.071 47.7209V140.568L115.817 140.759C114.884 141.355 113.888 141.972 112.828 142.568C112.489 142.781 112.128 142.973 111.768 143.164C110.835 143.696 109.839 144.229 108.822 144.739C107.804 145.25 106.893 145.676 105.875 146.123L104.201 146.847L101.912 147.741L100.046 148.401C98.7745 148.826 97.4604 149.231 96.1038 149.593L95.1077 149.848V47.7209H116.071Z" fill="#113041"/>
<path d="M116.071 47.7209V140.568L115.817 140.759C114.884 141.355 113.888 141.972 112.828 142.568C112.489 142.781 112.128 142.973 111.768 143.164C110.835 143.696 109.839 144.229 108.822 144.739C107.804 145.25 106.893 145.676 105.875 146.123L104.201 146.847L101.912 147.741L100.046 148.401C98.7745 148.826 97.4604 149.231 96.1038 149.593L95.1077 149.848V47.7209H116.071Z" fill="#113041"/>
<path d="M116.071 47.7209V140.568L115.817 140.759C114.884 141.355 113.888 141.972 112.828 142.568C112.489 142.781 112.128 142.973 111.768 143.164C110.835 143.696 109.839 144.229 108.822 144.739C107.804 145.25 106.893 145.676 105.875 146.123L104.201 146.847L101.912 147.741L100.046 148.401C98.7745 148.826 97.4604 149.231 96.1038 149.593L95.1077 149.848V47.7209H116.071Z" fill="#113041"/>
<path d="M116.071 47.7209V140.568L115.817 140.759C114.884 141.355 113.888 141.972 112.828 142.568C112.489 142.781 112.128 142.973 111.768 143.164C110.835 143.696 109.839 144.229 108.822 144.739C107.804 145.25 106.893 145.676 105.875 146.123L104.201 146.847L101.912 147.741L100.046 148.401C98.7745 148.826 97.4604 149.231 96.1038 149.593L95.1077 149.848V47.7209H116.071Z" fill="#113041"/>
<path d="M116.071 47.7209V140.568L115.817 140.759C114.884 141.355 113.888 141.972 112.828 142.568C112.489 142.781 112.128 142.973 111.768 143.164C110.835 143.696 109.839 144.229 108.822 144.739C107.804 145.25 106.893 145.676 105.875 146.123L104.201 146.847L101.912 147.741L100.046 148.401C98.7745 148.826 97.4604 149.231 96.1038 149.593L95.1077 149.848V47.7209H116.071Z" fill="#113041"/>
<path d="M95.1078 72.2632H73.5087V93.3356H95.1078V72.2632Z" fill="#113041"/>
<path d="M95.1078 72.2632H73.5087V93.3356H95.1078V72.2632Z" fill="#113041"/>
<path d="M95.1078 72.2632H73.5087V93.3356H95.1078V72.2632Z" fill="#113041"/>
<path d="M95.1078 72.2632H73.5087V93.3356H95.1078V72.2632Z" fill="#113041"/>
<path d="M95.1078 72.2632H73.5087V93.3356H95.1078V72.2632Z" fill="#113041"/>
</svg>
