<svg width="42" height="42" viewBox="0 0 42 42" fill="none" xmlns="http://www.w3.org/2000/svg">
<path d="M12.5688 21.238V15.2154L0 27.8488L2.9694 30.8954L12.5688 21.238ZM41.209 17.4739C40.2777 12.7687 36.7577 9.23979 36.3536 8.82221L27.7147 0L22.7774 4.9581L22.4259 5.31097V11.3336L27.6971 6.04028L32.611 11.0572L33.3607 11.8218L33.4134 11.8747C33.4134 11.8747 33.7415 12.1982 34.1924 12.7393C35.5757 14.3355 36.5578 16.2414 37.0564 18.2973C37.7593 21.8262 38.1107 25.9844 34.1924 31.0307V37.2533C34.5614 36.9298 34.7781 36.7004 34.8776 36.6181C38.3918 33.1597 40.4944 29.6662 41.3202 25.9314C41.8916 23.1375 41.8557 20.2526 41.2148 17.4739H41.209ZM15.0404 36.0652L14.9116 36.0005H14.8472C14.4643 35.7997 14.0998 35.5655 13.7578 35.3006C13.4357 35.0712 13.0433 34.7654 12.5864 34.3713C11.8719 33.7832 10.9816 32.9833 9.89806 31.9188L7.46751 29.425L4.4688 32.4363L6.88769 34.9124V34.9477C10.6302 38.6178 12.5513 39.6529 13.26 39.9529C15.504 41.0628 17.9358 41.7392 20.4288 41.9467C21.5743 42.0365 22.7258 42.0128 23.8668 41.8761L24.142 41.8467V37.5297C21.0322 38.0244 17.8462 37.5114 15.0463 36.0652H15.0404Z" fill="#9EE7E5"/>
<path d="M20.3115 7.44019V33.154H14.6948V13.0864L15.2571 12.5218L15.5616 12.2159L17.2601 10.5103L18.4081 9.35753L18.7829 8.98113L19.9367 7.82248L20.3115 7.44019Z" fill="#9EE7E5"/>
<path d="M32.0722 13.186V38.841L32.0019 38.8939C31.7442 39.0586 31.4689 39.2292 31.1761 39.3939C31.0824 39.4527 30.9828 39.5056 30.8832 39.5586C30.6255 39.7056 30.3502 39.8526 30.0691 39.9938C29.788 40.1349 29.5361 40.2526 29.255 40.3761L28.7923 40.5761L28.1598 40.8231L27.6444 41.0054C27.2929 41.123 26.9298 41.2348 26.555 41.3348L26.2797 41.4054V13.186H32.0722Z" fill="#9EE7E5"/>
<path d="M26.2798 19.9675H20.3116V25.7902H26.2798V19.9675Z" fill="#9EE7E5"/>
</svg>
