<?xml version="1.0" encoding="UTF-8"?>
<!DOCTYPE svg PUBLIC "-//W3C//DTD SVG 1.1//EN" "http://www.w3.org/Graphics/SVG/1.1/DTD/svg11.dtd">
<svg xmlns="http://www.w3.org/2000/svg" version="1.1" width="1918px" height="1138px" style="shape-rendering:geometricPrecision; text-rendering:geometricPrecision; image-rendering:optimizeQuality; fill-rule:evenodd; clip-rule:evenodd" xmlns:xlink="http://www.w3.org/1999/xlink">
<g><path style="opacity:0.999" fill="#fef2da" d="M 1917.5,135.5 C 1917.5,334.5 1917.5,533.5 1917.5,732.5C 1795.83,732.5 1674.17,732.5 1552.5,732.5C 1552.67,750.17 1552.5,767.836 1552,785.5C 1542.67,814.084 1523.17,825.584 1493.5,820C 1474.47,813.113 1463.63,799.613 1461,779.5C 1460.5,763.837 1460.33,748.17 1460.5,732.5C 1427.17,732.5 1393.83,732.5 1360.5,732.5C 1360.67,794.501 1360.5,856.501 1360,918.5C 1351.22,947.813 1331.72,959.646 1301.5,954C 1283.06,947.649 1272.23,934.816 1269,915.5C 1268.67,879.167 1268.33,842.833 1268,806.5C 1258.88,831.483 1241.05,842.317 1214.5,839C 1193.69,833.853 1181.52,820.686 1178,799.5C 1177.5,777.169 1177.33,754.836 1177.5,732.5C 1042.5,732.5 907.5,732.5 772.5,732.5C 772.667,849.5 772.5,966.5 772,1083.5C 767.183,1108.99 751.849,1122.32 726,1123.5C 701.564,1122.07 686.564,1109.4 681,1085.5C 680.5,967.834 680.333,850.167 680.5,732.5C 584.5,732.5 488.5,732.5 392.5,732.5C 392.928,756.534 392.428,780.534 391,804.5C 386.082,823.084 374.249,834.584 355.5,839C 329.488,842.248 311.654,831.748 302,807.5C 301.968,859.194 301.302,910.861 300,962.5C 293.609,985.222 278.609,997.222 255,998.5C 231.391,997.222 216.391,985.222 210,962.5C 209.5,885.834 209.333,809.167 209.5,732.5C 139.5,732.5 69.5,732.5 -0.5,732.5C -0.5,533.167 -0.5,333.833 -0.5,134.5C 146.636,89.8391 296.636,58.6724 449.5,41C 712.517,9.99958 976.183,2.99958 1240.5,20C 1402,29.6869 1562,50.6869 1720.5,83C 1787.09,97.2298 1852.76,114.73 1917.5,135.5 Z"/></g>
<g><path style="opacity:1" fill="#ffc5ab" d="M 498.5,159.5 C 504.659,159.216 510.659,160.049 516.5,162C 535.76,168.531 555.093,174.864 574.5,181C 581.138,185.017 583.304,190.85 581,198.5C 576.464,205.844 569.964,208.344 561.5,206C 540.624,198.958 519.624,192.291 498.5,186C 490.345,180.523 488.512,173.357 493,164.5C 494.73,162.598 496.563,160.931 498.5,159.5 Z"/></g>
<g><path style="opacity:1" fill="#9fe7e4" d="M 1394.5,170.5 C 1412.01,168.816 1418.17,176.149 1413,192.5C 1411.44,194.359 1409.61,195.859 1407.5,197C 1385.74,201.587 1364.07,206.587 1342.5,212C 1328.39,213.886 1322.22,207.72 1324,193.5C 1325.1,190.063 1327.27,187.563 1330.5,186C 1352.04,181.142 1373.37,175.975 1394.5,170.5 Z"/></g>
<g><path style="opacity:1" fill="#ffc540" d="M 992.5,214.5 C 996.605,214.234 1000.6,214.734 1004.5,216C 1025.17,224 1045.83,232 1066.5,240C 1073.07,243.655 1075.24,249.155 1073,256.5C 1069.71,264.229 1063.88,267.396 1055.5,266C 1034.13,257.642 1012.79,249.309 991.5,241C 980.668,231.801 981.001,222.967 992.5,214.5 Z"/></g>
<g><path style="opacity:1" fill="#9fe7e4" d="M 398.5,265.5 C 411.004,264.509 417.17,270.176 417,282.5C 415.567,287.598 412.4,291.098 407.5,293C 384.385,298.404 361.219,303.57 338,308.5C 332.761,308.255 328.761,305.922 326,301.5C 322.218,292.25 324.718,285.417 333.5,281C 355.329,275.958 376.996,270.791 398.5,265.5 Z"/></g>
<g><path style="opacity:1" fill="#b0d159" d="M 1507.5,274.5 C 1511.92,274.305 1516.25,274.805 1520.5,276C 1540.23,284.913 1560.23,293.246 1580.5,301C 1591.28,309.954 1590.94,318.621 1579.5,327C 1575.83,327.667 1572.17,327.667 1568.5,327C 1547.17,318 1525.83,309 1504.5,300C 1495.74,290.316 1496.74,281.816 1507.5,274.5 Z"/></g>
<g><path style="opacity:1" fill="#b0d159" d="M 724.5,316.5 C 732.162,315.088 738.328,317.421 743,323.5C 746.258,331.21 744.425,337.376 737.5,342C 716.167,351.667 694.833,361.333 673.5,371C 664.919,372.959 659.086,369.792 656,361.5C 654.123,354.42 656.289,348.92 662.5,345C 683.377,335.725 704.043,326.225 724.5,316.5 Z"/></g>
<g><path style="opacity:1" fill="#ffc5ab" d="M 1207.5,349.5 C 1221.27,349.289 1227.1,355.955 1225,369.5C 1224.09,370.328 1223.42,371.328 1223,372.5C 1204.09,385.705 1184.93,398.539 1165.5,411C 1155.46,417.335 1147.96,415.168 1143,404.5C 1141.12,397.42 1143.29,391.92 1149.5,388C 1169.01,375.304 1188.34,362.47 1207.5,349.5 Z"/></g>
</svg>
