<svg width="1272" height="265" viewBox="0 0 1272 265" fill="none" xmlns="http://www.w3.org/2000/svg">
<rect width="94.5953" height="27.8807" rx="13.9404" transform="matrix(0.834627 -0.550816 -0.550816 -0.834627 830.869 264.223)" fill="#FFC5AB"/>
<rect width="94.5953" height="27.8807" rx="13.9404" transform="matrix(-0.923063 -0.384649 -0.384649 0.923063 1271.01 150.862)" fill="#AFD157"/>
<rect width="94.5953" height="27.8807" rx="13.9404" transform="matrix(0.953416 0.301657 0.301657 -0.953416 165.276 26.582)" fill="#FFC5AB"/>
<rect width="94.5953" height="27.8807" rx="13.9404" transform="matrix(0.911966 -0.410266 -0.410266 -0.911966 341.026 220.41)" fill="#AFD157"/>
<rect width="94.5953" height="27.8807" rx="13.9404" transform="matrix(0.974596 -0.223972 -0.223972 -0.974596 1004.98 60.0959)" fill="#9EE7E5"/>
<rect width="94.5953" height="27.8807" rx="13.9404" transform="matrix(0.974596 -0.223972 -0.223972 -0.974596 6.24451 155.687)" fill="#9EE7E5"/>
<rect width="94.5953" height="27.8807" rx="13.9404" transform="matrix(0.932402 0.361422 0.361422 -0.932402 658.178 80.6733)" fill="#FFC53D"/>
</svg>
