<svg width="390" height="474" viewBox="0 0 390 474" fill="none" xmlns="http://www.w3.org/2000/svg">
<mask id="mask0_897_11022" style="mask-type:alpha" maskUnits="userSpaceOnUse" x="0" y="0" width="390" height="69">
<rect width="390" height="68.6563" fill="#FFF3DB"/>
</mask>
<g mask="url(#mask0_897_11022)">
<path fill-rule="evenodd" clip-rule="evenodd" d="M452.29 77.7969C452.29 77.7663 452.29 77.7357 452.29 77.705C452.29 37.5943 337.159 5.07812 195.137 5.07812C53.1156 5.07812 -62.0156 37.5943 -62.0156 77.705C-62.0156 77.7357 -62.0156 77.7663 -62.0154 77.7969H452.29Z" fill="#FFF3DB"/>
</g>
<rect y="67" width="390" height="281" fill="#FFF3DB"/>
<rect x="42" y="400" width="143" height="24" rx="12" transform="rotate(-90 42 400)" fill="#FFF3DB"/>
<rect x="18" y="436" width="137" height="24" rx="12" transform="rotate(-90 18 436)" fill="#FFF3DB"/>
<rect x="246" y="383" width="68" height="25" rx="12.5" transform="rotate(-90 246 383)" fill="#FFF3DB"/>
<rect x="315" y="374" width="75" height="25" rx="12.5" transform="rotate(-90 315 374)" fill="#FFF3DB"/>
<rect x="112" y="474" width="170" height="24" rx="12" transform="rotate(-90 112 474)" fill="#FFF3DB"/>
<rect x="271" y="416" width="124" height="24" rx="12" transform="rotate(-90 271 416)" fill="#FFF3DB"/>
</svg>
