<svg width="122" height="114" viewBox="0 0 122 114" fill="none" xmlns="http://www.w3.org/2000/svg">
<path d="M109.168 84.3755C109.168 83.0463 110.245 81.9688 111.575 81.9688H118.199C119.528 81.9688 120.605 83.0463 120.605 84.3755V99.1935C120.605 100.523 119.528 101.6 118.199 101.6H111.575C110.245 101.6 109.168 100.523 109.168 99.1935V84.3755Z" fill="white"/>
<path d="M111.305 79.668L118.987 82.1432H111.305V79.668Z" fill="white" stroke="white" stroke-width="0.0802241"/>
<rect x="3.16406" y="43.9922" width="108.571" height="59.0652" rx="3.84283" fill="white"/>
<path d="M3.15234 47.9256C3.15234 45.736 4.92739 43.9609 7.11702 43.9609L107.721 43.9609C109.91 43.9609 111.685 45.736 111.685 47.9256L3.15234 47.9256Z" fill="#1FBBC0"/>
<rect x="0.929688" y="95.7539" width="97.0106" height="8.79662" rx="1.28094" fill="#1FBBC0"/>
<path d="M87.3344 89.5586L80.4062 103.471H120.608V89.5586H87.3344Z" fill="#1FBBC0"/>
<rect x="103.543" y="97.5" width="18.4365" height="7.08441" rx="1.60448" fill="#1AABAF"/>
<path d="M76.8529 54.9096C76.8529 52.8051 78.559 51.099 80.6635 51.099H86.865V80.4865H80.6636C78.559 80.4865 76.8529 78.7804 76.8529 76.6759V54.9096Z" fill="#005271" stroke="#EDEDED" stroke-width="0.40112"/>
<g clip-path="url(#clip0_1485_19994)">
<path d="M87.0703 50.8984H102.045C105.738 50.8984 108.731 53.2371 108.731 56.122V78.8966H87.0703V50.8984Z" fill="#005271"/>
<path d="M87.2709 51.099H102.045C105.676 51.099 108.53 53.3911 108.53 56.122V78.6961H87.2709V51.099Z" stroke="#EDEDED" stroke-width="0.40112"/>
</g>
<path fill-rule="evenodd" clip-rule="evenodd" d="M106.593 104.592C106.602 104.405 106.607 104.217 106.607 104.028C106.607 98.1619 101.852 93.4062 95.9853 93.4062C90.1189 93.4062 85.3633 98.1619 85.3633 104.028C85.3633 104.217 85.3682 104.405 85.378 104.592H106.593Z" fill="#1AABAF"/>
<ellipse cx="95.9824" cy="103.994" rx="9.43165" ry="9.47433" fill="black"/>
<ellipse cx="95.9466" cy="103.947" rx="4.95055" ry="4.90787" fill="#777777"/>
<ellipse cx="95.9043" cy="104.076" rx="2.00583" ry="2.0485" fill="white"/>
<path fill-rule="evenodd" clip-rule="evenodd" d="M81.0146 104.586L88.0536 89.1532L87.3237 88.8203L80.1328 104.586H81.0146Z" fill="white"/>
<path fill-rule="evenodd" clip-rule="evenodd" d="M26.4484 104.505C26.4554 104.347 26.4589 104.188 26.4589 104.028C26.4589 98.1619 21.7033 93.4062 15.8369 93.4062C9.97049 93.4062 5.21484 98.1619 5.21484 104.028C5.21484 104.188 5.21838 104.347 5.22537 104.505H26.4484Z" fill="#1AABAF"/>
<ellipse cx="15.8418" cy="103.994" rx="9.43165" ry="9.47433" fill="black"/>
<ellipse cx="15.7943" cy="103.947" rx="4.95055" ry="4.90787" fill="#777777"/>
<ellipse cx="15.7519" cy="104.072" rx="2.00583" ry="2.0485" fill="white"/>
<rect x="111.742" y="84.4492" width="2.38992" height="1.36567" rx="0.40112" fill="#FFC5AB"/>
<path d="M115.384 85.4312C115.266 84.9277 115.648 84.4453 116.165 84.4453H120.615V93.6636L117.25 92.0566C117.031 91.9518 116.871 91.7531 116.815 91.5163L115.384 85.4312Z" fill="#FFC53D"/>
<path d="M9.59766 82.6133H63.6163V84.4841C63.6163 86.2563 62.1796 87.693 60.4074 87.693H12.8066C11.0344 87.693 9.59766 86.2563 9.59766 84.4841V82.6133Z" fill="#EDEDED"/>
<path d="M9.59766 82.6133H63.6163V84.4841C63.6163 86.2563 62.1796 87.693 60.4074 87.693H12.8066C11.0344 87.693 9.59766 86.2563 9.59766 84.4841V82.6133Z" fill="black" fill-opacity="0.2"/>
<rect x="8.60938" y="81.8711" width="55.8771" height="1.36286" rx="0.681428" fill="#EDEDED"/>
<g clip-path="url(#clip1_1485_19994)">
<path d="M10.4336 54.7417C10.4336 52.5263 12.2295 50.7305 14.4448 50.7305H60.4224C62.6377 50.7305 64.4336 52.5263 64.4336 54.7417V82.7193C64.4336 84.9346 62.6377 86.7305 60.4224 86.7305H14.4448C12.2295 86.7305 10.4336 84.9346 10.4336 82.7193L10.4336 54.7417Z" fill="#005271"/>
<rect opacity="0.05" x="25.4297" y="45.8633" width="3.91839" height="23.2949" transform="rotate(52.1656 25.4297 45.8633)" fill="white"/>
<rect opacity="0.05" x="23.6641" y="43.4609" width="2.01649" height="23.2949" transform="rotate(52.1656 23.6641 43.4609)" fill="white"/>
</g>
<path d="M10.2006 55.0112C10.2006 52.9066 11.9066 51.2006 14.0112 51.2006H59.9888C62.0934 51.2006 63.7994 52.9066 63.7994 55.0112V82.7994H10.2006L10.2006 55.0112Z" stroke="#EDEDED" stroke-width="0.40112"/>
<mask id="mask0_1485_19994" style="mask-type:alpha" maskUnits="userSpaceOnUse" x="8" y="0" width="56" height="61">
<rect x="8.98438" width="54.0325" height="60.3651" fill="#D9D9D9"/>
</mask>
<g mask="url(#mask0_1485_19994)">
<rect x="20.582" y="37.5508" width="42.4125" height="6.83104" rx="3.41552" fill="#9EE7E5"/>
<rect x="20.582" y="37.5508" width="11.0348" height="6.83104" rx="3.41552" fill="#88D8DD"/>
<path fill-rule="evenodd" clip-rule="evenodd" d="M59.0145 44.3758C59.6003 42.5934 59.9172 40.689 59.9172 38.7106C59.9172 28.6985 51.8008 20.582 41.7887 20.582C31.7766 20.582 23.6602 28.6985 23.6602 38.7106C23.6602 40.689 23.9771 42.5934 24.5629 44.3758H59.0145Z" fill="#9EE7E5"/>
<mask id="mask1_1485_19994" style="mask-type:alpha" maskUnits="userSpaceOnUse" x="23" y="20" width="37" height="25">
<path fill-rule="evenodd" clip-rule="evenodd" d="M59.0145 44.3758C59.6003 42.5934 59.9172 40.689 59.9172 38.7106C59.9172 28.6985 51.8008 20.582 41.7887 20.582C31.7766 20.582 23.6602 28.6985 23.6602 38.7106C23.6602 40.689 23.9771 42.5934 24.5629 44.3758H59.0145Z" fill="#9EE7E5"/>
</mask>
<g mask="url(#mask1_1485_19994)">
<circle cx="36.7613" cy="34.2067" r="18.1285" fill="#88D8DD"/>
<circle cx="45.2379" cy="27.902" r="18.1285" fill="#9EE7E5"/>
<rect opacity="0.15" x="20.8516" y="35.5859" width="25.6273" height="2.94165" transform="rotate(-42.864 20.8516 35.5859)" fill="#005271"/>
</g>
<path opacity="0.75" d="M48.2852 25.7617C50.7248 26.4373 53.5023 29.0271 54.328 31.2416" stroke="white" stroke-width="1.3512" stroke-linecap="round"/>
<path d="M9.04449 0.0491675L23.8999 35.3663L41.3598 20.6331L9.04449 0.0491675Z" fill="#FFBB4D"/>
<mask id="mask2_1485_19994" style="mask-type:alpha" maskUnits="userSpaceOnUse" x="9" y="0" width="33" height="36">
<path d="M9.04058 0.041355L23.896 35.3585L41.3559 20.6253L9.04058 0.041355Z" fill="#F0BF5E"/>
</mask>
<g mask="url(#mask2_1485_19994)">
<line x1="0.983854" y1="22.739" x2="15.2564" y2="-0.912712" stroke="#F2B149" stroke-width="0.375332"/>
<line x1="6.76901" y1="26.2312" x2="21.0416" y2="2.57948" stroke="#F2B149" stroke-width="0.375332"/>
<line x1="12.5542" y1="29.7194" x2="26.8268" y2="6.06776" stroke="#F2B149" stroke-width="0.375332"/>
<line x1="18.3354" y1="33.2116" x2="32.608" y2="9.55994" stroke="#F2B149" stroke-width="0.375332"/>
<line x1="24.1206" y1="36.6999" x2="38.3932" y2="13.0482" stroke="#F2B149" stroke-width="0.375332"/>
<line x1="12.9349" y1="1.92607" x2="40.493" y2="3.83951" stroke="#F2B149" stroke-width="0.375332"/>
<line x1="12.4661" y1="8.66435" x2="40.0242" y2="10.5778" stroke="#F2B149" stroke-width="0.375332"/>
<line x1="11.9974" y1="15.4065" x2="39.5555" y2="17.32" stroke="#F2B149" stroke-width="0.375332"/>
<line x1="11.5325" y1="22.1448" x2="39.0906" y2="24.0583" stroke="#F2B149" stroke-width="0.375332"/>
<line x1="11.0638" y1="28.887" x2="38.6219" y2="30.8004" stroke="#F2B149" stroke-width="0.375332"/>
<path d="M24.3964 39.2988L-9.8447 5.12366L15.693 -8.28949L24.3964 39.2988Z" fill="black" fill-opacity="0.05"/>
</g>
<circle opacity="0.75" cx="55.5272" cy="33.6443" r="0.675598" fill="white"/>
</g>
<defs>
<clipPath id="clip0_1485_19994">
<rect width="23.0457" height="29.7886" fill="white" transform="translate(87.0703 50.8984)"/>
</clipPath>
<clipPath id="clip1_1485_19994">
<path d="M10 51H59.9888C62.2041 51 64 52.7959 64 55.0112V82H10L10 51Z" fill="white"/>
</clipPath>
</defs>
</svg>
