<svg width="364" height="76" viewBox="0 0 364 76" fill="none" xmlns="http://www.w3.org/2000/svg">
<rect width="27.0908" height="7.98466" rx="3.99233" transform="matrix(0.834627 -0.550816 -0.550816 -0.834627 237.949 75.6697)" fill="#FFC5AB"/>
<rect width="27.0908" height="7.98466" rx="3.99233" transform="matrix(-0.923063 -0.384649 -0.384649 0.923063 363.998 43.2047)" fill="#AFD157"/>
<rect width="27.0908" height="7.98466" rx="3.99233" transform="matrix(0.953416 0.301657 0.301657 -0.953416 47.333 7.61267)" fill="#FFC5AB"/>
<rect width="27.0908" height="7.98466" rx="3.99233" transform="matrix(0.911966 -0.410266 -0.410266 -0.911966 97.665 63.1223)" fill="#AFD157"/>
<rect width="27.0908" height="7.98466" rx="3.99233" transform="matrix(0.974596 -0.223972 -0.223972 -0.974596 287.812 17.2106)" fill="#9EE7E5"/>
<rect width="27.0908" height="7.98466" rx="3.99233" transform="matrix(0.974596 -0.223972 -0.223972 -0.974596 1.78809 44.5866)" fill="#9EE7E5"/>
<rect width="27.0908" height="7.98466" rx="3.99233" transform="matrix(0.932402 0.361422 0.361422 -0.932402 188.493 23.1036)" fill="#FFC53D"/>
</svg>
