<svg xmlns="http://www.w3.org/2000/svg" width="1.6em" height="1.6em" viewBox="0 0 256 256"><path fill="#123041" d="M196 128a68 68 0 1 1-68-68a68.1 68.1 0 0 1 68 68Zm-68-84a8 8 0 0 0 8-8v-8a8 8 0 0 0-16 0v8a8 8 0 0 0 8 8ZM57.3 68.6a8.1 8.1 0 0 0 11.3 0a8 8 0 0 0 0-11.3l-5.7-5.7a8 8 0 0 0-11.3 11.3ZM36 120h-8a8 8 0 0 0 0 16h8a8 8 0 0 0 0-16Zm21.3 67.4l-5.7 5.7a8 8 0 0 0 0 11.3a8.3 8.3 0 0 0 5.7 2.3a8 8 0 0 0 5.6-2.3l5.7-5.7a8 8 0 0 0-11.3-11.3ZM128 212a8 8 0 0 0-8 8v8a8 8 0 0 0 16 0v-8a8 8 0 0 0-8-8Zm70.7-24.6a8 8 0 0 0-11.3 11.3l5.7 5.7a8 8 0 0 0 5.6 2.3a8.3 8.3 0 0 0 5.7-2.3a8 8 0 0 0 0-11.3ZM228 120h-8a8 8 0 0 0 0 16h8a8 8 0 0 0 0-16Zm-34.9-49.1a7.8 7.8 0 0 0 5.6-2.3l5.7-5.7a8 8 0 1 0-11.3-11.3l-5.7 5.7a8 8 0 0 0 0 11.3a7.8 7.8 0 0 0 5.7 2.3Z"/></svg>