<svg width="12" height="12" viewBox="0 0 12 12" fill="none" xmlns="http://www.w3.org/2000/svg">
<path d="M11.9991 6.59471C11.8446 8.11179 11.1197 9.51353 9.97082 10.5163C8.822 11.5191 7.33506 12.0483 5.81097 11.9965C4.28689 11.9448 2.83926 11.3162 1.76117 10.2377C0.682961 9.15919 0.0547383 7.71141 0.00339949 6.18738C-0.0478362 4.6633 0.481658 3.17672 1.48494 2.02818C2.48821 0.879762 3.89026 0.155199 5.4074 0.00121342C5.50032 -0.00908962 5.58771 0.0471094 5.61684 0.135902C5.64598 0.224694 5.60879 0.32173 5.52786 0.368468C4.74893 0.832847 4.13035 1.52391 3.75484 2.34925C3.37933 3.17471 3.26476 4.09506 3.42645 4.98729C3.58821 5.87953 4.01851 6.70116 4.65987 7.34228C5.30121 7.9834 6.12306 8.41342 7.01541 8.57479C7.90779 8.73626 8.82817 8.62143 9.65357 8.24564C10.4789 7.86986 11.1698 7.25104 11.6339 6.47203C11.6817 6.39354 11.7772 6.35841 11.8644 6.38717C11.9516 6.41592 12.0074 6.50097 11.9992 6.59248L11.9991 6.59471Z" fill="#9EE7E5"/>
</svg>
