<svg width="80" height="127" viewBox="0 0 80 127" fill="none" xmlns="http://www.w3.org/2000/svg">
<path fill-rule="evenodd" clip-rule="evenodd" d="M47.5086 0.915039L17.3175 0.924254V14.9068H25.1771L7.90711 51.9989H0V65.9806H16.9464C19.9935 57.0862 23.7988 50.351 23.7988 50.351L19.739 52.852C21.9123 44.4014 25.7083 37.5426 25.7083 37.5426L23.4377 38.9501C23.4377 38.9501 26.4174 28.8908 34.8243 22.2286C40.1565 18.0021 42.6892 12.749 42.6892 12.749C43.8 14.3001 42.1365 18.8852 42.4968 19.0426C42.4968 19.0426 46.0943 13.9346 46.1541 13.9676C46.8011 15.0112 45.6589 19.0249 45.4228 20.0125C45.202 20.9324 45.6934 21.3263 46.2974 21.8178C51.8719 26.3445 59.9262 39.0292 62.2328 43.5844L62.2474 43.5767C62.3784 43.8401 63.3865 46.1875 63.4731 46.3941C64.2603 48.2739 63.0768 49.3911 61.2324 50.6121C59.3873 51.8323 57.8818 51.6871 57.0301 51.1066C55.7093 50.2043 55.1513 48.872 54.2153 47.9099C52.328 46.9055 49.7707 47.0184 47.9494 45.7774C46.4845 44.7792 45.3009 43.2926 44.7451 42.6959L44.5075 42.7904C45.2725 45.5056 50.5427 65.9806 64.8912 65.9806H79.6721V51.9989H71.4316L47.5086 0.915039Z" fill="white"/>
<path fill-rule="evenodd" clip-rule="evenodd" d="M71.362 89.3257H69.5831V83.9341C69.5831 83.1358 69.5286 82.6637 69.1837 82.2643C68.8929 81.9194 68.4214 81.7382 67.7863 81.7382C67.1326 81.7382 66.57 81.974 66.2797 82.3369C65.9169 82.7723 65.8077 83.3535 65.8077 84.243V89.3257H64.0289V81.8288H62.9943V80.5213H65.1L65.4263 81.556C65.9349 80.7942 66.9509 80.3582 68.0766 80.3582C69.2743 80.3582 70.2003 80.7396 70.7083 81.3382C71.1443 81.8468 71.362 82.5726 71.362 83.6624V89.3257ZM59.3105 84.9873C59.0017 84.8781 58.294 84.751 57.7494 84.751C56.352 84.751 55.7894 85.4773 55.7894 86.4754C55.7894 87.6192 56.4606 88.2729 57.4586 88.2729C58.0397 88.2729 58.5482 88.0732 58.8751 87.7283C59.1834 87.3829 59.3105 86.9294 59.3105 86.2942V84.9873ZM62.1054 89.0534C61.8337 89.2531 61.4157 89.4168 60.8531 89.4168C60.1819 89.4168 59.6188 89.126 59.4557 88.5453C59.0202 89.126 58.0763 89.4889 57.1503 89.4889C55.2989 89.4889 54.0106 88.4542 54.0106 86.5486C54.0106 84.5513 55.372 83.5167 57.5137 83.5167C58.1849 83.5167 58.9291 83.6804 59.3105 83.807V83.5532C59.3105 82.8815 59.22 82.5 58.9291 82.1557C58.6208 81.7923 58.0763 81.5925 57.2774 81.5925C56.4786 81.5925 55.6803 81.7923 54.8454 82.2463V80.9573C55.6437 80.5579 56.5151 80.3582 57.5317 80.3582C58.784 80.3582 59.8005 80.685 60.3997 81.3022C60.8717 81.8108 61.0894 82.482 61.0894 83.4626V87.6013C61.0894 88.0187 61.2165 88.1819 61.5248 88.1819C61.7245 88.1819 62.0334 88.0733 62.178 87.9642L62.1054 89.0534ZM51.3253 83.3355C51.0711 82.2463 50.5991 81.6291 49.6371 81.6291C48.149 81.6291 47.5314 83.0086 47.5314 84.8056C47.5314 87.0927 48.3668 88.1999 50.073 88.1999C50.9985 88.1999 51.9605 87.837 52.6502 87.365L52.5776 88.7265C51.9059 89.1805 50.8353 89.4889 49.7827 89.4889C47.1865 89.4889 45.7345 87.8736 45.7345 84.9328C45.7345 82.0646 47.2231 80.3582 49.6191 80.3582C51.3253 80.3582 52.5956 81.2116 52.977 82.9726L51.3253 83.3355ZM42.5773 79.1239C41.9962 79.1239 41.5242 78.6518 41.5242 78.0527C41.5242 77.454 41.9962 77 42.5773 77C43.1579 77 43.6479 77.454 43.6479 78.0527C43.6479 78.6518 43.1579 79.1239 42.5773 79.1239ZM44.5919 89.0533C44.3196 89.253 43.8842 89.4167 43.3216 89.4167C42.777 89.4167 42.3776 89.253 42.1233 88.9627C41.8876 88.6904 41.7965 88.2729 41.7965 87.6372V81.8287H40.7619V80.5212H43.5753V87.6012C43.5753 88.0186 43.7025 88.1818 44.0113 88.1818C44.211 88.1818 44.5193 88.0732 44.6645 87.9641L44.5919 89.0533ZM39.6558 81.9014C39.5282 81.8648 39.2019 81.8468 39.0382 81.8468C38.4216 81.8468 37.9316 82.0646 37.6042 82.482C37.2418 82.936 37.1142 83.5347 37.1142 84.4427V89.3257H35.3359V81.8288H34.3013V80.5213H36.479L36.8059 81.7382C37.2599 80.8482 38.1673 80.3582 39.1658 80.3582C39.3655 80.3582 39.5472 80.3767 39.6558 80.4127V81.9014ZM29.3832 81.6111C28.2581 81.6111 27.4593 82.4095 27.3141 84.3336H31.2347C31.3438 84.3336 31.3984 84.261 31.3984 84.1524C31.3984 82.6092 30.7267 81.6111 29.3832 81.6111ZM32.8503 85.2777C32.6872 85.4408 32.3964 85.5139 31.9975 85.5139H27.3141C27.4412 87.329 28.4758 88.1999 29.9463 88.1999C30.9263 88.1999 32.0515 87.837 32.7412 87.347L32.6686 88.7085C31.9424 89.2171 30.7266 89.4889 29.656 89.4889C26.9147 89.4889 25.4992 87.6738 25.4992 84.9688C25.4992 82.1191 27.0053 80.3582 29.4198 80.3582C31.7066 80.3582 33.1041 81.992 33.1041 84.4607C33.1041 84.8056 33.032 85.0965 32.8503 85.2777ZM23.8311 89.3257H22.0522V83.9341C22.0522 83.1358 21.9977 82.6637 21.6528 82.2643C21.362 81.9374 20.9265 81.7382 20.3094 81.7382C19.6562 81.7382 19.1662 81.974 18.8574 82.3369C18.4945 82.7723 18.3854 83.3535 18.3854 84.243V87.837V89.3257H16.6066V83.9341C16.6066 83.1358 16.5525 82.6637 16.2071 82.2643C15.9168 81.9374 15.4814 81.7382 14.8643 81.7382C14.2106 81.7382 13.7206 81.974 13.4123 82.3369C13.0489 82.7723 12.9403 83.3535 12.9403 84.243V89.3257H11.1614V81.8288H10.1269V80.5213H12.232L12.5589 81.556C13.0674 80.7942 14.0294 80.3582 15.1546 80.3582C16.3343 80.3582 17.4054 80.7396 17.95 81.6651C18.5311 80.7396 19.5837 80.3582 20.6182 80.3582C21.7979 80.3582 22.6694 80.7396 23.1774 81.3382C23.6133 81.8468 23.8311 82.5726 23.8311 83.6624V89.3257ZM6.6614 85.5139L5.0277 80.7756C4.9191 80.4672 4.82799 80.0312 4.79144 79.7043H4.77396C4.75541 80.0312 4.66483 80.5038 4.57425 80.7756L3.06715 85.5139H6.6614ZM9.89225 89.3258H7.96825L7.09684 86.8025H2.64973L1.85142 89.3258H0L3.33997 79.1784H2.3054V77.8354H5.75397L9.89225 89.3258ZM75.3683 122.558L73.5895 122.559L73.5879 117.168C73.5873 116.369 73.5333 115.897 73.1879 115.498C72.8976 115.153 72.4256 114.972 71.7905 114.972C71.1368 114.972 70.5742 115.208 70.2834 115.571C69.9211 116.007 69.8119 116.588 69.8125 117.478L69.8141 122.56H68.0352L68.0331 115.064L66.9985 115.064L66.998 113.757L69.1037 113.756L69.4305 114.791C69.9385 114.028 70.9546 113.592 72.0803 113.592C73.278 113.592 74.2045 113.973 74.7125 114.572C75.1485 115.08 75.3667 115.806 75.3667 116.895L75.3683 122.558ZM63.8593 115.011C63.569 114.902 63.1151 114.811 62.7156 114.812C60.8648 114.812 59.7396 116.047 59.7401 118.352C59.7407 120.24 60.4484 121.329 61.8824 121.329C62.5 121.329 63.0081 121.11 63.3529 120.747C63.7153 120.348 63.8609 119.839 63.8609 119.096L63.8593 115.011ZM65.6403 122.38C65.6409 123.905 65.4417 124.631 64.8426 125.321C64.1894 126.065 63.0277 126.411 61.6663 126.412C60.5591 126.412 59.488 126.139 58.7257 125.74L58.7978 124.343C59.4695 124.742 60.5226 125.123 61.5752 125.122C62.3194 125.122 62.9726 124.922 63.3535 124.523C63.7349 124.105 63.8615 123.524 63.8615 122.454V121.709C63.3895 122.236 62.6632 122.599 61.5926 122.599C59.2872 122.6 57.9438 121.13 57.9428 118.48C57.9422 116.846 58.4868 115.611 59.3577 114.776C60.1926 113.977 61.3723 113.595 62.7517 113.595C63.7137 113.595 64.8214 113.812 65.6382 114.121L65.6403 122.38ZM54.8565 112.363C54.276 112.363 53.8034 111.891 53.8034 111.292C53.8029 110.693 54.2754 110.239 54.856 110.239C55.4366 110.239 55.9271 110.693 55.9271 111.292C55.9277 111.891 55.4377 112.363 54.8565 112.363ZM56.8743 122.292C56.602 122.492 56.1666 122.655 55.6035 122.656C55.0594 122.656 54.6595 122.493 54.4057 122.202C54.1695 121.93 54.0789 121.512 54.0789 120.877L54.0768 115.068L53.0422 115.069L53.0417 113.762L55.8556 113.761L55.8572 120.84C55.8572 121.258 55.9843 121.421 56.2932 121.421C56.4929 121.421 56.8012 121.312 56.9463 121.203L56.8743 122.292ZM49.2869 118.228C48.9781 118.119 48.2704 117.992 47.7258 117.992C46.3278 117.993 45.7658 118.719 45.7658 119.718C45.7663 120.861 46.438 121.514 47.436 121.514C48.0166 121.514 48.5257 121.314 48.852 120.969C49.1603 120.624 49.2875 120.17 49.2875 119.535L49.2869 118.228ZM52.0829 122.294C51.8111 122.494 51.3937 122.657 50.8311 122.657C50.1594 122.657 49.5963 122.367 49.4331 121.786C48.9977 122.367 48.0537 122.73 47.1283 122.731C45.2768 122.731 43.988 121.697 43.9869 119.791C43.9864 117.794 45.3478 116.759 47.4895 116.758C48.1607 116.758 48.9055 116.921 49.2869 117.048V116.794C49.2864 116.122 49.1953 115.741 48.905 115.397C48.5962 115.033 48.0516 114.834 47.2533 114.834C46.4544 114.834 45.6556 115.034 44.8207 115.488L44.8202 114.2C45.6191 113.8 46.4899 113.6 47.5065 113.6C48.7588 113.599 49.7759 113.926 50.375 114.543C50.847 115.051 51.0652 115.722 51.0652 116.703L51.0663 120.842C51.0663 121.259 51.1934 121.422 51.5017 121.422C51.7015 121.422 52.0103 121.313 52.1554 121.204L52.0829 122.294ZM38.7415 114.927C38.0698 114.928 37.5613 115.182 37.2349 115.6C36.9086 116.017 36.7815 116.598 36.7815 117.415L36.7831 121.336C37.2185 121.463 37.7265 121.535 38.2171 121.535C40.1771 121.535 40.8668 120.282 40.8663 118.085C40.8657 115.816 40.0849 114.927 38.7415 114.927ZM38.3447 122.733C37.8001 122.733 37.219 122.679 36.7831 122.588L36.7841 126.182L35.0053 126.183L35.0021 115.074H33.9675V113.767L36.1272 113.766L36.4726 114.837C37.0347 114.038 37.9241 113.602 39.0312 113.602C41.6995 113.601 42.662 115.634 42.6631 118.048C42.6636 120.808 41.4484 122.732 38.3447 122.733ZM32.719 122.571L30.9401 122.572L30.9391 117.18C30.9391 116.382 30.884 115.91 30.5386 115.511C30.2483 115.184 29.8128 114.985 29.1962 114.985C28.5425 114.985 28.0525 115.221 27.7437 115.584C27.3814 116.02 27.2722 116.601 27.2728 117.49L27.2738 121.084V122.573L25.495 122.574L25.4934 117.182C25.4934 116.383 25.4388 115.912 25.094 115.512C24.8032 115.186 24.3677 114.986 23.7506 114.986C23.0969 114.987 22.6069 115.222 22.2986 115.586C21.9357 116.021 21.8266 116.602 21.8271 117.492L21.8282 122.575L20.0499 122.575L20.0477 115.078L19.0132 115.079L19.0126 113.771L21.1183 113.771L21.4452 114.805C21.9532 114.043 22.9152 113.607 24.0403 113.607C25.2201 113.607 26.2917 113.987 26.8363 114.913C27.4169 113.986 28.4694 113.605 29.504 113.605C30.6837 113.604 31.5551 113.985 32.0637 114.585C32.4991 115.093 32.7174 115.818 32.7174 116.908L32.719 122.571ZM15.6028 118.238C15.2939 118.129 14.5862 118.002 14.0416 118.003C12.6437 118.003 12.0816 118.729 12.0816 119.728C12.0821 120.871 12.7538 121.525 13.7519 121.524C14.333 121.524 14.841 121.324 15.1678 120.979C15.4761 120.634 15.6033 120.18 15.6028 119.545V118.238ZM18.3992 122.303C18.1269 122.503 17.7095 122.666 17.1469 122.666C16.4752 122.666 15.9127 122.376 15.749 121.796C15.3135 122.377 14.3701 122.74 13.4441 122.74C11.5927 122.741 10.3033 121.707 10.3028 119.8C10.3022 117.804 11.6631 116.768 13.8054 116.768C14.4771 116.768 15.2213 116.931 15.6022 117.058V116.803C15.6022 116.132 15.5111 115.751 15.2203 115.406C14.912 115.043 14.3674 114.844 13.5691 114.844C12.7703 114.844 11.9714 115.044 11.1366 115.498L11.136 114.209C11.9344 113.809 12.8058 113.609 13.8223 113.609C15.0751 113.609 16.0917 113.935 16.6903 114.552C17.1628 115.06 17.3805 115.732 17.3805 116.712L17.3821 120.851C17.3821 121.269 17.5093 121.432 17.8181 121.432C18.0178 121.432 18.3261 121.323 18.4713 121.214L18.3992 122.303ZM7.10796 114.265C6.85316 113.158 6.36316 112.341 5.14689 112.341C3.24144 112.342 2.46114 114.23 2.4622 116.662C2.46273 119.44 3.28011 121.273 5.71211 121.272C6.74668 121.272 7.98096 120.908 8.79781 120.346L8.70723 121.87C7.94547 122.343 6.69265 122.742 5.34925 122.743C1.79209 122.744 0.484173 120.221 0.483643 116.772C0.482584 113.123 2.15124 110.926 5.21893 110.925C7.34263 110.925 8.66856 112.067 8.9954 113.901L7.10796 114.265ZM75.8859 98.6001C74.7608 98.6001 73.9625 99.3995 73.8173 101.324L77.7384 101.323C77.847 101.323 77.9021 101.25 77.9021 101.141C77.901 99.5977 77.2293 98.5996 75.8859 98.6001ZM79.3541 102.266C79.1909 102.429 78.9001 102.502 78.5012 102.502L73.8178 102.503C73.946 104.319 74.9806 105.189 76.4506 105.189C77.4311 105.189 78.5563 104.825 79.246 104.335L79.1734 105.696C78.4477 106.205 77.232 106.478 76.1609 106.478C73.42 106.479 72.0035 104.664 72.003 101.959C72.0019 99.1092 73.5079 97.3482 75.9219 97.3472C78.2093 97.3466 79.6073 98.9799 79.6078 101.449C79.6078 101.794 79.5358 102.084 79.3541 102.266ZM67.594 106.48C66.4868 106.48 65.4703 106.245 64.69 105.9L64.8166 104.484C65.5794 104.938 66.5774 105.21 67.5214 105.21C68.5379 105.209 69.3182 104.828 69.3177 104.048C69.3177 103.213 68.7186 102.976 67.0669 102.433C65.6869 101.979 64.7069 101.417 64.7069 99.946C64.7064 98.3308 66.1033 97.3501 68.0813 97.3496C68.9527 97.3491 69.7516 97.4942 70.3507 97.712L70.3512 99.0915C69.7521 98.8192 68.8261 98.62 68.1364 98.62C67.0478 98.6205 66.3761 99.0926 66.3761 99.7643C66.3761 100.472 66.9752 100.726 68.3732 101.198C70.0254 101.742 70.9509 102.305 70.9514 103.847C70.9519 105.372 69.7357 106.48 67.594 106.48ZM63.7089 98.894C63.5813 98.8575 63.2549 98.8395 63.0913 98.8395C62.4746 98.8395 61.9846 99.0577 61.6578 99.4752C61.2949 99.9292 61.1678 100.528 61.1683 101.436L61.1694 106.319H59.3911L59.3884 98.8225H58.3538V97.5156L60.5316 97.515L60.8584 98.7314C61.3124 97.8414 62.2198 97.3513 63.2184 97.3513C63.4181 97.3508 63.5993 97.3693 63.7084 97.4054L63.7089 98.894ZM53.5449 98.6245C52.0749 98.625 51.3312 99.6782 51.3317 101.929C51.3328 104.18 52.077 105.214 53.5471 105.214C55.0176 105.213 55.7613 104.179 55.7608 101.928C55.7597 99.6772 55.0155 98.624 53.5449 98.6245ZM53.5476 106.485C51.0064 106.485 49.5359 104.87 49.5348 101.93C49.5343 98.9889 51.0038 97.3545 53.5449 97.354C56.086 97.3535 57.5571 98.9868 57.5582 101.927C57.5587 104.868 56.0887 106.484 53.5476 106.485ZM47.7766 106.323L45.8892 106.324L45.8876 101.314L41.1322 101.315L41.1338 106.325L39.2458 106.325L39.2421 94.8349L41.1301 94.8344L41.1316 99.8079L45.8871 99.8069L45.8855 94.8333L47.7734 94.8323L47.7766 106.323ZM30.5333 98.7215C30.2424 98.649 29.807 98.5769 29.3716 98.5769C27.5201 98.5774 26.413 99.7938 26.4141 102.208C26.4146 103.951 27.0863 105.203 28.5383 105.203C29.21 105.202 29.7546 104.948 30.0629 104.585C30.4077 104.168 30.5349 103.659 30.5343 102.788L30.5333 98.7215ZM33.3308 106.055C33.0585 106.254 32.6226 106.418 32.06 106.419C31.5159 106.419 31.116 106.255 30.8623 105.965C30.7711 105.856 30.6986 105.729 30.644 105.566C30.0994 106.183 29.2831 106.492 28.3391 106.492C25.9797 106.493 24.6178 104.932 24.6172 102.264C24.6162 100.702 25.0696 99.3954 25.9771 98.5239C26.7574 97.761 27.9191 97.3616 29.2444 97.361C29.6799 97.361 30.1519 97.4151 30.5328 97.5062L30.5322 95.2186L29.4977 95.2192L29.4971 93.9117L32.3105 93.9111L32.3132 104.603C32.3137 105.021 32.4414 105.184 32.7497 105.184C32.9494 105.184 33.2577 105.075 33.4034 104.966L33.3308 106.055ZM23.6208 106.058C23.3485 106.258 22.9125 106.421 22.35 106.421C21.8054 106.421 21.406 106.258 21.1517 105.968C20.9154 105.696 20.8249 105.278 20.8249 104.642L20.8222 95.2213L19.7871 95.2218V93.9149L22.6 93.9138L22.6037 104.606C22.6037 105.024 22.7308 105.187 23.0397 105.187C23.2394 105.186 23.5477 105.078 23.6928 104.969L23.6208 106.058ZM17.0293 96.1302C16.4487 96.1302 15.9762 95.6582 15.9762 95.0595C15.9757 94.4604 16.4482 94.0063 17.0288 94.0063C17.6099 94.0063 18.0999 94.4598 18.0999 95.0585C18.0999 95.6577 17.6104 96.1297 17.0293 96.1302ZM19.0471 106.059C18.7748 106.259 18.3393 106.422 17.7768 106.422C17.2322 106.422 16.8328 106.26 16.5785 105.969C16.3422 105.697 16.2517 105.279 16.2511 104.644L16.2495 98.8354H15.215L15.2144 97.5284L18.0279 97.5273L18.03 104.607C18.0305 105.025 18.1571 105.188 18.4659 105.188C18.6657 105.188 18.974 105.079 19.1191 104.97L19.0471 106.059ZM14.4352 94.8418L11.1169 106.334H9.30207L7.28538 99.382L5.18128 106.335L3.43898 106.336L0.00524902 94.846L1.87468 94.8455L4.23676 102.904C4.3639 103.34 4.43647 103.758 4.43647 104.084H4.45448C4.47302 103.758 4.5456 103.286 4.65419 102.959L6.54004 96.8226L5.95893 94.8444L7.73777 94.8439L10.0448 102.848C10.1724 103.266 10.263 103.72 10.263 104.083H10.281C10.2996 103.738 10.3901 103.23 10.4987 102.848L12.6749 94.8423L14.4352 94.8418Z" fill="white"/>
</svg>
