<?xml version="1.0" encoding="utf-8"?>
<svg class="logotype" xmlns="http://www.w3.org/2000/svg" viewBox="0 0 43.75 21.354" role="img" alt="Pocky Logo">
    <title>Pocky Logo</title>
    <path d="M26.09 16.78L28.985.188l2.36.412-2.893 16.592z" fill="#FFFFFF"></path><path d="M30.235 17.501l2.428.424-.738-7.753 2.821-5.601-2.43-.424-2.82 5.601zM33.405 18.301l-.805 2.073s.581.228 1.019.398c2.059.796 2.761-.492 3.333-1.525 1.43-2.58 6.46-11.56 6.46-11.56l-2.166-.838-3.456 6.706s1.113-4.692 1.715-7.38l-2.217-.86-2.405 12.734c-.08.488-.401.671-.774.528l-.704-.276zM7.043 5.072C6.462 3.926 5.404 2.486 3.46 3.257l-3.1 1.23 6.211 15.654 2.226-.883-1.762-4.443.873-.347c1.943-.772 1.722-2.56 1.362-3.777-.299-1.021-.615-2.006-.958-2.871-.344-.864-.79-1.797-1.269-2.748zm-.136 6.107c.206.83-.101 1.148-.362 1.252l-.394.155-2.679-6.755s.13-.053.391-.155c.263-.104.704-.082 1.123.663.205.362.526.953 1.087 2.371.564 1.415.735 2.066.834 2.469zM16.385 6.523c-.59-2.082-1.631-3.112-3.652-2.718-2.019.392-2.601 1.738-2.367 3.889.103.95.202 1.808.552 3.614a37.7 37.7 0 0 0 .842 3.559c.59 2.083 1.633 3.113 3.653 2.719 2.019-.394 2.601-1.738 2.367-3.89-.104-.95-.202-1.81-.554-3.615a37.338 37.338 0 0 0-.841-3.558zm-.89 7.617c.045.843-.171 1.056-.532 1.127-.362.069-.644-.047-.917-.845-.313-.914-.627-2.48-.837-3.559-.209-1.079-.507-2.649-.558-3.614-.045-.842.171-1.054.533-1.125.362-.072.643.046.916.843.314.914.628 2.481.836 3.559.21 1.079.509 2.649.559 3.614zM23.073 11.935c-.02.603-.021 1.181-.083 1.624-.117.834-.37 1.003-.739 1.003s-.622-.169-.738-1.003c-.134-.958-.141-2.554-.141-3.654 0-1.099.007-2.696.141-3.654.116-.834.369-1.002.738-1.002s.622.168.739 1.002c.057.41.058.939.078 1.494h2.32c-.028-.565-.031-1.018-.072-1.494-.181-2.155-1.007-3.365-3.066-3.365-2.057 0-2.885 1.21-3.065 3.365-.082.953-.148 1.815-.148 3.654s.066 2.7.148 3.654c.18 2.157 1.007 3.367 3.065 3.367 2.059 0 2.885-1.21 3.066-3.367.044-.512.049-.999.077-1.624h-2.32zM38.899 19.899c.199-.005.357-.086.357-.307 0-.095-.043-.196-.127-.242a.519.519 0 0 0-.274-.056h-.491v1.124h.136v-.519h.254l.322.519h.164l-.341-.519zm-.399-.107v-.398h.322c.14 0 .292.021.292.195 0 .229-.245.203-.403.203H38.5z" fill="#FFFFFF"></path><path d="M38.754 20.923a1.058 1.058 0 0 1-1.056-1.056c0-.582.474-1.056 1.056-1.056s1.056.474 1.056 1.056c0 .582-.474 1.056-1.056 1.056zm0-1.986a.93.93 0 1 0 .002 1.862.93.93 0 0 0-.002-1.862z" fill="#FFFFFF"></path>
</svg>